<svg xmlns="http://www.w3.org/2000/svg" viewBox="0 0 184.3 50.81"><defs><style>.cls-1{fill:#e6e6e6;}</style></defs><title>Asset 16</title><g id="Layer_2" data-name="Layer 2"><g id="Layer_1-2" data-name="Layer 1"><path class="cls-1" d="M12.41,45.59a3.69,3.69,0,0,1-2.35-.67,2.25,2.25,0,0,1-.84-1.87,7.82,7.82,0,0,1,1.42-3.75,53.75,53.75,0,0,1,4.54-6q.62-.72,1.22-1.34a15.9,15.9,0,0,1,1.29-1.18q.69-.57,1.49-1.17L21,28.28q-.75-.72-1.63-1.41a10.86,10.86,0,0,0-2-1.22,11.3,11.3,0,0,0-2.5-.84,14.93,14.93,0,0,0-3.19-.31,1,1,0,1,1,0-2.06A4.36,4.36,0,0,0,14.3,21.3a17.75,17.75,0,0,0,2.81-2.88,28.77,28.77,0,0,0,2.5-3.74,18.31,18.31,0,0,0,1.65-3.74,5.85,5.85,0,0,0,.26-2.88,1.47,1.47,0,0,0-1.66-1.15,9.23,9.23,0,0,0-6.07,2.55A29.82,29.82,0,0,0,7.92,17q.17,1,.48,2.69t.53,3.57q.22,1.9.26,3.86a13.44,13.44,0,0,1-.36,3.52,5.73,5.73,0,0,1-1.32,2.55,3.39,3.39,0,0,1-2.61,1A3.26,3.26,0,0,1,2.18,33a5.59,5.59,0,0,1-1-3.52,13.78,13.78,0,0,1,.27-2.59,27.46,27.46,0,0,1,.75-3,30.69,30.69,0,0,1,1.18-3.16q.7-1.61,1.56-3.22l-.69-3.94q-.62.28-1.35.53l-1.59.53a.87.87,0,0,1-.27,0,1.13,1.13,0,0,1-.72-.27A.91.91,0,0,1,0,13.63a.9.9,0,0,1,.45-.75,5.12,5.12,0,0,1,1.06-.55q.62-.24,1.3-.45A8.86,8.86,0,0,0,4,11.44a22.87,22.87,0,0,1-.21-2.95,9.91,9.91,0,0,1,.36-2.78A7.61,7.61,0,0,1,5.11,3.6,4.22,4.22,0,0,1,6.48,2.26,3.15,3.15,0,0,1,8.09,1.8a2.62,2.62,0,0,1,2,1A3.72,3.72,0,0,1,11,5.3a6.32,6.32,0,0,1-.39,2.25,9,9,0,0,1-1,1.9A9.24,9.24,0,0,1,8.33,11,8,8,0,0,1,7,12c0,.37.1.69.15,1s.12.62.19,1a26.2,26.2,0,0,1,6.24-7,10.69,10.69,0,0,1,6.24-2.16,5.3,5.3,0,0,1,3.77,1.29A4.72,4.72,0,0,1,25,9.76a10.5,10.5,0,0,1-.62,3.36,17.69,17.69,0,0,1-1.73,3.62A22.37,22.37,0,0,1,20,20.15a16,16,0,0,1-3.24,2.71,17.69,17.69,0,0,1,4.08,1.25,10.46,10.46,0,0,1,3.05,2.11l1.53-1.13q.74-.55,1.35-1.06a11.22,11.22,0,0,0,1-1,4.39,4.39,0,0,0,.63-.84.82.82,0,0,1,.39-.39,1.24,1.24,0,0,1,.53-.12,1,1,0,0,1,.75.31,1,1,0,0,1,.27.69A1.88,1.88,0,0,1,30,23.8a10,10,0,0,1-1.2,1.27q-.74.67-1.68,1.37l-1.9,1.39.24.51a11,11,0,0,1,.65,1.8A6.57,6.57,0,0,1,26.3,32a10.66,10.66,0,0,1-.58,3.48,14.22,14.22,0,0,1-1.58,3.21,15.47,15.47,0,0,1-2.35,2.78,16.45,16.45,0,0,1-2.9,2.18,14.52,14.52,0,0,1-3.21,1.41A11.41,11.41,0,0,1,12.41,45.59ZM5.59,20.87a30.83,30.83,0,0,0-1.71,4.65,15.1,15.1,0,0,0-.62,3.93,5,5,0,0,0,.33,1.94,1.29,1.29,0,0,0,1.32.77A1.78,1.78,0,0,0,5.56,32a1.1,1.1,0,0,0,.53-.5,3.22,3.22,0,0,0,.34-1.06,11.24,11.24,0,0,0,.12-1.85,27.17,27.17,0,0,0-.27-3.55Q6,23,5.59,20.87Zm2.5-17a.84.84,0,0,0-.65.46,4.18,4.18,0,0,0-.51,1.27,10.18,10.18,0,0,0-.27,1.83,9.91,9.91,0,0,0,.1,2.16,4.66,4.66,0,0,0,1.77-2A5.91,5.91,0,0,0,8.92,5.4a2.1,2.1,0,0,0-.27-1.17Q8.37,3.82,8.09,3.82Zm14.2,26.06-1.7,1.25q-.77.57-1.44,1.11T17.9,33.37a16.33,16.33,0,0,0-1.13,1.22q-1.58,1.89-2.62,3.33T12.47,40.4a11.94,11.94,0,0,0-.89,1.7,3,3,0,0,0-.26.93v.19a.19.19,0,0,0,.1.15,1,1,0,0,0,.33.12,3.29,3.29,0,0,0,.67.05,5.89,5.89,0,0,0,2.44-.62,12.45,12.45,0,0,0,2.62-1.66,16.61,16.61,0,0,0,2.4-2.42A15.07,15.07,0,0,0,21.73,36a9.58,9.58,0,0,0,.93-3.07A6.22,6.22,0,0,0,22.29,29.89Z"/><path class="cls-1" d="M34.4,36.82a4.92,4.92,0,0,1-2.73-1,8.24,8.24,0,0,1-2-2.3,11.45,11.45,0,0,1-1.29-3.16,15.86,15.86,0,0,1-.15-7.1,9.75,9.75,0,0,1,1.17-3.07A6.59,6.59,0,0,1,31.45,18a5.36,5.36,0,0,1,3-.82,1.89,1.89,0,0,1,1.46.62,2.19,2.19,0,0,1,.57,1.54,4.37,4.37,0,0,1-1.32,2.9,10.77,10.77,0,0,1-3.58,2.49c0,.25,0,.5-.05.75s0,.51,0,.79a20.5,20.5,0,0,0,.21,2.79,16.75,16.75,0,0,0,.6,2.74,8.94,8.94,0,0,0,.93,2.09,1.47,1.47,0,0,0,1.18.84,2.83,2.83,0,0,0,1.89-1.06,14.45,14.45,0,0,0,2-2.81,33,33,0,0,0,1.92-4,37.48,37.48,0,0,0,1.53-4.51.88.88,0,0,1,.34-.55,1,1,0,0,1,.62-.21,1,1,0,0,1,.77.33,1.08,1.08,0,0,1,.29.74.38.38,0,0,1,0,.12.38.38,0,0,0,0,.12,41.18,41.18,0,0,1-1.82,5.33,26.8,26.8,0,0,1-2.31,4.41,13.61,13.61,0,0,1-2.61,3A4.19,4.19,0,0,1,34.4,36.82Zm0-17.56a1.14,1.14,0,0,0-.69.26,3.3,3.3,0,0,0-.65.67,7.1,7.1,0,0,0-.58.93A6.12,6.12,0,0,0,32,22.17a6.21,6.21,0,0,0,1.77-1.49,3.67,3.67,0,0,0,.53-.94.8.8,0,0,0,.07-.29Z"/><path class="cls-1" d="M66.67,1.29A3.41,3.41,0,0,1,68.31,4.2a1,1,0,0,1-.31.74,1,1,0,0,1-.72.29,1,1,0,0,1-1-1,1.22,1.22,0,0,0-.34-.87,2.58,2.58,0,0,0-.86-.58A6.46,6.46,0,0,0,64,2.38q-.58-.14-1.06-.21a14.75,14.75,0,0,0-1.68-.1,16.11,16.11,0,0,0-1.73.1l-2.16.26q-1.22.15-3,.33.14,2.26.17,5.11t0,6q-.05,3.14-.14,6.38t-.17,6.28q-.09,3-.14,5.71t0,4.68q0,2,.12,3.16t.38,1.15a.84.84,0,0,0,.21-.21q.14-.17.36-.51a9.45,9.45,0,0,0,.5-.89q.27-.55.65-1.41.48-1.2,1-2.83t1.13-3.69q.48-1.75.91-3.4T60,25.34q.31-1.29.65-2.86a1,1,0,0,1,.43-.65.93.93,0,0,1,.77-.14.91.91,0,0,1,.67.43,1.09,1.09,0,0,1,.15.77s-.07.32-.21.89L62,26q-.33,1.39-.79,3.16t-1,3.58a51.22,51.22,0,0,1-2.37,6.86q-.34.79-.67,1.37t-.63,1a2.62,2.62,0,0,1-2,1.27,2.64,2.64,0,0,1-2.33-1.58,13.29,13.29,0,0,1-1.35-4.18,43.27,43.27,0,0,1-.58-6q-.12-3.38-.05-7t.29-7.1q.22-3.52.45-6.41t.34-4.92a19.65,19.65,0,0,0,.05-2.61,23.61,23.61,0,0,0-3,1.18,15.64,15.64,0,0,0-2.88,1.8A6.3,6.3,0,0,0,43,9.83a1,1,0,0,1-1,.79l-.14,0-.14,0a1,1,0,0,1-.63-.48A.92.92,0,0,1,41,9.31a6.57,6.57,0,0,1,1.41-2.67,12.38,12.38,0,0,1,2.33-2.11A18.81,18.81,0,0,1,47.43,3Q48.8,2.32,49.9,1.9A31.54,31.54,0,0,1,56.29.33Q58,.09,59.77,0a20.81,20.81,0,0,1,3.4.14,10.31,10.31,0,0,1,2,.43A7,7,0,0,1,66.67,1.29Z"/><path class="cls-1" d="M73.49,39.49a2.49,2.49,0,0,1-1.92-.74,4.12,4.12,0,0,1-1-1.94,11.23,11.23,0,0,1-.24-2.74q0-1.54.21-3.14T71,27.8q.26-1.54.39-2.74a11.08,11.08,0,0,0,.09-1.94q-.05-.74-.46-.74a1.67,1.67,0,0,0-1.22.69,7.74,7.74,0,0,0-1.11,1.77,24.78,24.78,0,0,0-1,2.38q-.46,1.3-.84,2.54A23.46,23.46,0,0,1,66.1,32a8.36,8.36,0,0,1-.69,1.37,2,2,0,0,1-.63.67,1.33,1.33,0,0,1-.65.17q-1,0-1.7-1.39A14,14,0,0,1,61.3,29.2a35.82,35.82,0,0,1-.55-5.14,56.89,56.89,0,0,1,.07-5.9,51.9,51.9,0,0,1,.7-5.9,29.9,29.9,0,0,1,1.35-5.14,12.07,12.07,0,0,1,2-3.65,3.51,3.51,0,0,1,2.73-1.39,2.12,2.12,0,0,1,1.71.79A3.66,3.66,0,0,1,70,5.23a13.6,13.6,0,0,1-.38,2.86,37.49,37.49,0,0,1-1.1,3.82Q67.8,14,66.75,16.53t-2.38,5.2q0,.89-.05,1.73t0,1.66q0,1.54.07,3t.14,2.26l.41-1.24q.48-1.65,1.06-3.22a17.58,17.58,0,0,1,1.32-2.83,7.38,7.38,0,0,1,1.66-2A3.18,3.18,0,0,1,71,20.32a2.93,2.93,0,0,1,2.11.74A4.35,4.35,0,0,1,74.26,23a10.37,10.37,0,0,1,.39,2.74,24.36,24.36,0,0,1-.14,3.14q-.17,1.6-.43,3.14t-.46,2.74q-.21,1.2-.27,1.94c0,.49,0,.74.14.74q.48,0,1.13-1.06A20.81,20.81,0,0,0,76,33.69q.69-1.61,1.35-3.53t1.18-3.58q.51-1.66.84-2.85a10.4,10.4,0,0,0,.33-1.36.87.87,0,0,1,.36-.58,1.13,1.13,0,0,1,.67-.21.92.92,0,0,1,.72.31,1,1,0,0,1,.27.69.39.39,0,0,1,0,.12.37.37,0,0,0,0,.12s-.06.3-.17.77-.27,1.08-.46,1.82-.43,1.59-.7,2.54-.58,1.92-.93,2.9a30.71,30.71,0,0,1-2.92,6.5Q75.07,39.49,73.49,39.49ZM67.63,4.13q-.41,0-.86.93a14,14,0,0,0-.86,2.55q-.41,1.63-.74,3.82t-.53,4.7q.86-2,1.49-3.77t1-3.21q.39-1.42.58-2.43a9.11,9.11,0,0,0,.19-1.49,2.38,2.38,0,0,0-.1-.94C67.77,4.18,67.7,4.13,67.63,4.13Z"/><path class="cls-1" d="M85.63,36.82a4.92,4.92,0,0,1-2.73-1,8.24,8.24,0,0,1-2-2.3,11.45,11.45,0,0,1-1.29-3.16,15.86,15.86,0,0,1-.15-7.1,9.75,9.75,0,0,1,1.17-3.07A6.59,6.59,0,0,1,82.68,18a5.36,5.36,0,0,1,3-.82,1.89,1.89,0,0,1,1.46.62,2.19,2.19,0,0,1,.57,1.54,4.37,4.37,0,0,1-1.32,2.9,10.77,10.77,0,0,1-3.58,2.49c0,.25,0,.5-.05.75s0,.51,0,.79a20.5,20.5,0,0,0,.21,2.79,16.75,16.75,0,0,0,.6,2.74,8.94,8.94,0,0,0,.93,2.09,1.47,1.47,0,0,0,1.18.84,2.83,2.83,0,0,0,1.89-1.06,14.45,14.45,0,0,0,2-2.81,33,33,0,0,0,1.92-4A37.39,37.39,0,0,0,93,22.41a.88.88,0,0,1,.34-.55,1,1,0,0,1,.62-.21,1,1,0,0,1,.77.33,1.08,1.08,0,0,1,.29.74.39.39,0,0,1,0,.12A.38.38,0,0,0,95,23a41.18,41.18,0,0,1-1.82,5.33,26.8,26.8,0,0,1-2.31,4.41,13.61,13.61,0,0,1-2.61,3A4.19,4.19,0,0,1,85.63,36.82Zm0-17.56a1.14,1.14,0,0,0-.69.26,3.3,3.3,0,0,0-.65.67,7.1,7.1,0,0,0-.58.93,6.12,6.12,0,0,0-.45,1.06A6.21,6.21,0,0,0,85,20.68a3.67,3.67,0,0,0,.53-.94.8.8,0,0,0,.07-.29Z"/><path class="cls-1" d="M123.22,50.81a3.89,3.89,0,0,1-2.45-.87,7.69,7.69,0,0,1-2-2.56,19.17,19.17,0,0,1-1.49-4.08,39.82,39.82,0,0,1-1-5.45q-.48.07-.93.1t-.93,0a3.84,3.84,0,0,1-1.65-.31,2.82,2.82,0,0,1-1-.79,3.18,3.18,0,0,1-.55-1,3.83,3.83,0,0,1-.17-1.12,3.36,3.36,0,0,1,.27-1.35,3.7,3.7,0,0,1,.74-1.12,3.4,3.4,0,0,1,2.45-1,7.51,7.51,0,0,1,1.23.1,2.31,2.31,0,0,1-.07-.57v-.53l-.07-.86V29a1.63,1.63,0,0,0,0-.33A26.43,26.43,0,0,1,112,29.94a14.34,14.34,0,0,1-3.5.43,14.9,14.9,0,0,1-1.7-.16,17.05,17.05,0,0,1-2.37-.48,9.12,9.12,0,0,1-2.09-.84q-.91-.51-.91-1.2a.93.93,0,0,1,.34-.74,1.1,1.1,0,0,1,.72-.29,1,1,0,0,1,.52.14,10.25,10.25,0,0,0,5.49,1.47,13.57,13.57,0,0,0,3.45-.46,20.73,20.73,0,0,0,3.58-1.32q-.14-2.26-.22-4.54t-.08-4.51q0-8,1.61-11.88T122,1.63a5,5,0,0,1,2.64.74,7,7,0,0,1,2.07,2,10.1,10.1,0,0,1,1.37,2.92,12.39,12.39,0,0,1,.5,3.55,16.24,16.24,0,0,1-.75,4.85,20,20,0,0,1-2.09,4.58,21.58,21.58,0,0,1-3.17,4,19.2,19.2,0,0,1-4,3.05q0,.41.14,1.65t.31,3.7l.69.52c.21.16.54.45,1,.86a12.92,12.92,0,0,0,2.49-2,26.84,26.84,0,0,0,2.13-2.47A30.11,30.11,0,0,0,127.08,27q.77-1.27,1.3-2.28T129.2,23q.29-.65.29-.69a1,1,0,0,1,1-.69,1,1,0,0,1,.74.33,1,1,0,0,1,.29.7,1.16,1.16,0,0,1-.07.34s-.13.3-.33.75-.47,1-.84,1.77-.82,1.52-1.36,2.4-1.15,1.78-1.83,2.69a27,27,0,0,1-2.26,2.64,17.27,17.27,0,0,1-2.64,2.23A20.18,20.18,0,0,1,124,38.17a24,24,0,0,1,1.46,2.88,17.15,17.15,0,0,1,.94,2.88,11.71,11.71,0,0,1,.33,2.59,7.89,7.89,0,0,1-.15,1.56,3.88,3.88,0,0,1-.55,1.37,3,3,0,0,1-1.08,1A3.6,3.6,0,0,1,123.22,50.81Zm-8.68-17.52a1.19,1.19,0,0,0-1.1.5,1.8,1.8,0,0,0-.31.94q0,1.2,1.34,1.2a12.48,12.48,0,0,0,1.61-.1q-.07-.62-.1-1.2t-.07-1.13A5,5,0,0,0,114.54,33.28ZM122,3.65q-.82,0-1.44,1.1a11.39,11.39,0,0,0-1,2.9,36,36,0,0,0-.7,4.08q-.28,2.28-.39,4.65T118.32,21q0,2.25.14,4a17.78,17.78,0,0,0,3.19-2.71,19.81,19.81,0,0,0,2.57-3.43,17.56,17.56,0,0,0,1.71-3.91,14.41,14.41,0,0,0,.62-4.15,11.77,11.77,0,0,0-.28-2.5A8.24,8.24,0,0,0,125.43,6,5.3,5.3,0,0,0,124,4.3,3.19,3.19,0,0,0,122,3.65Zm-2.95,33.51a43.75,43.75,0,0,0,.74,4.73,27.41,27.41,0,0,0,1,3.65A9.82,9.82,0,0,0,122,47.91c.41.56.81.84,1.2.84a1.16,1.16,0,0,0,1.22-.65,4.29,4.29,0,0,0,.26-1.58,9.44,9.44,0,0,0-.32-2.33,16.83,16.83,0,0,0-.91-2.59A23,23,0,0,0,122.09,39a18.78,18.78,0,0,0-1.71-2.4l-.41.21-.24.14a1.08,1.08,0,0,1-.26.12Z"/><path class="cls-1" d="M138.62,21.69a1,1,0,0,1,.63.46,1,1,0,0,1,.12.77s-.09.28-.21.7l-.45,1.63q-.28,1-.69,2.25t-.89,2.59Q136.56,31.7,136,33t-1.06,2.18q-.38.58-.69,1a5.81,5.81,0,0,1-.65.79,2.82,2.82,0,0,1-1.89.89h0a2.44,2.44,0,0,1-2.2-1.32,8.75,8.75,0,0,1-1.06-3.31,21.86,21.86,0,0,1-.14-4.29,30.06,30.06,0,0,1,.55-4.29,15.83,15.83,0,0,1,1-3.31q.6-1.32,1.25-1.32t1,1.17a13.38,13.38,0,0,1,.33,2.91q0,1.75-.1,3.81T132,31.7q-.17,1.75-.29,2.92c-.08.78-.08,1.17,0,1.17l.33-.22a3.76,3.76,0,0,0,.7-.84,15.79,15.79,0,0,0,1.06-1.92q.62-1.27,1.41-3.43.45-1.27.84-2.52t.69-2.23q.29-1,.6-2.18a1,1,0,0,1,.48-.63A1,1,0,0,1,138.62,21.69Zm-7.13-3.22a1.33,1.33,0,0,1-1-.39,1.29,1.29,0,0,1-.39-.94,1.2,1.2,0,0,1,.39-.89,1.36,1.36,0,0,1,1-.38,1.5,1.5,0,0,1,1,.38,1.14,1.14,0,0,1,.45.89,1.22,1.22,0,0,1-.45.94A1.47,1.47,0,0,1,131.48,18.47Z"/><path class="cls-1" d="M146.71,39.22a2.38,2.38,0,0,1-2-1,6.43,6.43,0,0,1-1-2.59,17.42,17.42,0,0,1-.29-3.5q0-1.92.21-3.72t.46-3.26a20.17,20.17,0,0,1,.48-2.11,8,8,0,0,1-2.07.74,15.53,15.53,0,0,1-2.21.29,6.84,6.84,0,0,1-3.55-.62,7,7,0,0,1-2.47-2,7.1,7.1,0,0,1-1.3-2.69,5.24,5.24,0,0,1,0-2.73,4.1,4.1,0,0,1,1.44-2.11,4.65,4.65,0,0,1,3-.86,3.34,3.34,0,0,1,1.59.34,2.71,2.71,0,0,1,1,.89,3.45,3.45,0,0,1,.5,1.25A7.39,7.39,0,0,1,140.5,17a7.79,7.79,0,0,1-.1,1.18q-.1.67-.24,1.36t-.31,1.34q-.17.65-.31,1.1a1.76,1.76,0,0,0,.34,0h.34a7.59,7.59,0,0,0,4.9-1.82,1.06,1.06,0,0,1,1.68.48,5.75,5.75,0,0,1,.53,1.9,21,21,0,0,1,.15,2.69q0,1.51-.09,3.1t-.24,3.14l-.27,2.76q-.12,1.22-.17,2a2.29,2.29,0,0,0,0,.86,1.47,1.47,0,0,0,.38-.29,4.91,4.91,0,0,0,.72-1,21.42,21.42,0,0,0,1-2.18q.6-1.41,1.39-3.74.45-1.37.82-2.71t.65-2.38l.62-2.35a1,1,0,0,1,.34-.57,1,1,0,0,1,.65-.22,1,1,0,0,1,.74.31,1,1,0,0,1,.29.72.41.41,0,0,1,0,.12.36.36,0,0,0,0,.12q-.38,1.48-.7,2.64t-.77,2.62q-.45,1.46-.93,2.95T151,34a22,22,0,0,1-1,2.28,9.5,9.5,0,0,1-.58,1,7.78,7.78,0,0,1-.75,1,3.79,3.79,0,0,1-.89.72A2,2,0,0,1,146.71,39.22Zm-9.43-24.08a1,1,0,0,0-.81.45,3,3,0,0,0-.48,1.15,6.71,6.71,0,0,0,.07,3,3.82,3.82,0,0,0,.55,1.22,1.26,1.26,0,0,0,.87.58q.14-.38.31-1t.31-1.29q.14-.67.22-1.3a8.06,8.06,0,0,0,.09-1,2.61,2.61,0,0,0-.27-1.51A1.09,1.09,0,0,0,137.28,15.14Z"/><path class="cls-1" d="M167.63,21.73a1,1,0,0,1,.57.53,1,1,0,0,1,.05.77q-.31.82-.58,1.7l-.55,1.73q-.76,2.3-1.56,4.54a21.3,21.3,0,0,1-1.94,4.06,10.29,10.29,0,0,1-2.92,3.09,7.42,7.42,0,0,1-4.22,1.23,7.07,7.07,0,0,1-2.35-.43A6.3,6.3,0,0,1,152,37.74a6.68,6.68,0,0,1-2.16-5.11,1,1,0,0,1,.29-.72.93.93,0,0,1,.7-.31h0a1,1,0,0,1,.72.29,1,1,0,0,1,.31.74,5.13,5.13,0,0,0,.41,2.16,4.08,4.08,0,0,0,1.06,1.44,4,4,0,0,0,1.46.79,5.71,5.71,0,0,0,1.63.24h0a2.1,2.1,0,0,0,1.22-.34,2.45,2.45,0,0,0,.79-.91,4.78,4.78,0,0,0,.43-1.27,7.47,7.47,0,0,0,.14-1.42,5,5,0,0,0-.63-2.5,12.08,12.08,0,0,0-1.59-2.2q-1-1.06-2.07-2.18A19.63,19.63,0,0,1,152.71,24,13.57,13.57,0,0,1,151.12,21a10.17,10.17,0,0,1-.63-3.74,8.63,8.63,0,0,1,.17-1.61,6.13,6.13,0,0,1,.58-1.68,4,4,0,0,1,1.13-1.34,2.92,2.92,0,0,1,1.82-.55,1.89,1.89,0,0,1,1.49.6,3.47,3.47,0,0,1,.75,1.47,7.55,7.55,0,0,1,.22,1.87,11.06,11.06,0,0,1-.14,1.82,12.7,12.7,0,0,1-.6,2.42,16.9,16.9,0,0,1-1,2.31,9.29,9.29,0,0,0,1.46,1.47q.81.65,1.66,1.3t1.8,1.42a9.63,9.63,0,0,1,1.63,1.7,8.12,8.12,0,0,1,1.47,3.43,30.18,30.18,0,0,0,1.18-3q.53-1.56,1-3.14.27-.89.57-1.77c.19-.58.39-1.16.6-1.73a1.13,1.13,0,0,1,.55-.6A.91.91,0,0,1,167.63,21.73Zm-14-1.34a11.57,11.57,0,0,0,.91-3.4,5.13,5.13,0,0,0-.22-2.47l-.1-.15-.07-.12-.07-.07H154a.15.15,0,0,0-.1,0,2,2,0,0,0-.51.94,7.16,7.16,0,0,0-.24,2.11A9.23,9.23,0,0,0,153.67,20.39Z"/><path class="cls-1" d="M182.65,1.29A3.41,3.41,0,0,1,184.3,4.2a1,1,0,0,1-.31.74,1,1,0,0,1-.72.29,1,1,0,0,1-1-1,1.23,1.23,0,0,0-.34-.87,2.59,2.59,0,0,0-.86-.58,6.48,6.48,0,0,0-1.1-.36c-.39-.09-.74-.16-1.06-.21a14.75,14.75,0,0,0-1.68-.1,16.12,16.12,0,0,0-1.73.1l-2.16.26q-1.22.15-3,.33.14,2.26.17,5.11t0,6q-.05,3.14-.14,6.38t-.17,6.28q-.09,3-.14,5.71t0,4.68q0,2,.12,3.16t.38,1.15a.84.84,0,0,0,.21-.21q.14-.17.36-.51a9.56,9.56,0,0,0,.5-.89q.27-.55.65-1.41.48-1.2,1-2.83t1.13-3.69q.48-1.75.91-3.4t.74-2.93q.31-1.29.65-2.86a1,1,0,0,1,1.2-.79.91.91,0,0,1,.67.43,1.09,1.09,0,0,1,.15.77s-.07.32-.21.89L178,26q-.33,1.39-.79,3.16t-1,3.58a51.29,51.29,0,0,1-2.37,6.86q-.34.79-.67,1.37t-.63,1a2.62,2.62,0,0,1-2,1.27,2.64,2.64,0,0,1-2.33-1.58,13.28,13.28,0,0,1-1.36-4.18,43.34,43.34,0,0,1-.58-6q-.12-3.38-.05-7t.29-7.1q.22-3.52.45-6.41t.34-4.92a19.77,19.77,0,0,0,.05-2.61,23.6,23.6,0,0,0-3,1.18,15.64,15.64,0,0,0-2.88,1.8A6.3,6.3,0,0,0,159,9.83a1,1,0,0,1-1,.79l-.14,0-.14,0a1,1,0,0,1-.63-.48.92.92,0,0,1-.09-.79,6.58,6.58,0,0,1,1.41-2.67,12.35,12.35,0,0,1,2.33-2.11A18.81,18.81,0,0,1,163.41,3q1.37-.65,2.47-1.06a30.77,30.77,0,0,1,3-.93,31.24,31.24,0,0,1,3.36-.65Q174,.09,175.76,0a20.81,20.81,0,0,1,3.4.14,10.3,10.3,0,0,1,2,.43A7,7,0,0,1,182.65,1.29Z"/></g></g></svg>