<svg xmlns="http://www.w3.org/2000/svg" viewBox="0 0 112.62 44"><defs><style>.cls-1{fill:#e6e6e6;}</style></defs><title>Asset 14</title><g id="Layer_2" data-name="Layer 2"><g id="Layer_1-2" data-name="Layer 1"><path class="cls-1" d="M2.15,44A3.41,3.41,0,0,1,.6,43.66a1,1,0,0,1-.53-.58,1,1,0,0,1,0-.79.93.93,0,0,1,.58-.51,1,1,0,0,1,.79,0,1.78,1.78,0,0,0,.72.15,2.2,2.2,0,0,0,1.13-.39,8.69,8.69,0,0,0,2.5-2.67A32,32,0,0,0,8.2,34.43Q9.35,31.86,10.33,29t1.78-5.83q.8-2.95,1.39-5.59.21-.89.34-1.63t.27-1.42q.14-.69.24-1.35t.21-1.46L14,10.22q-.41-1-.81-2.33T12.51,5.2a9.48,9.48,0,0,1-.19-2.54A3.54,3.54,0,0,1,13,.75,2.19,2.19,0,0,1,14.84,0a2.37,2.37,0,0,1,.93.27,2.14,2.14,0,0,1,1,1.23,8.5,8.5,0,0,1,.34,1.18,9.13,9.13,0,0,1,.17,1.54q0,.91,0,2.19t-.27,3.1q.34.69.7,1.32t.82,1.53q.46.89,1,2.19t1.37,3.26q.24-.89.45-1.49l.38-1.08.34-.94.41-1.08q.65-1.85,1.32-3.6t1.32-3.22q.55-1.27,1-2.13l.38-.69a4,4,0,0,1,.34-.38A.93.93,0,0,1,27.49,3a1.83,1.83,0,0,1,1.44.86,8.27,8.27,0,0,1,1.15,2.3A25.91,25.91,0,0,1,31,9.47q.38,1.89.65,4t.46,4.2q.19,2.13.33,4t.24,3.43q.1,1.54.17,2.44a43.32,43.32,0,0,0,2.83-3.45,15.4,15.4,0,0,0,2-3.65,1.15,1.15,0,0,1,.55-.57.91.91,0,0,1,.79,0,1.15,1.15,0,0,1,.57.55.91.91,0,0,1,0,.79A18,18,0,0,1,36.75,26Q35,28.19,32.94,30.39q0,.69,0,1.92T32.91,35q-.07,1.44-.27,2.92A13.11,13.11,0,0,1,32,40.59a5.22,5.22,0,0,1-1.22,2,2.66,2.66,0,0,1-1.94.75,3.28,3.28,0,0,1-3-1.71,5.3,5.3,0,0,1-.65-3,7.1,7.1,0,0,1,.89-3.09A20.63,20.63,0,0,1,27.75,33q.87-1.13,2.18-2.54-.17-2.81-.45-5.85t-.62-6.1q-.34-3.07-.74-6.12t-.81-5.9q-.72,1.58-1.77,4.24t-2.11,5.92l-.51,1.54q-.21.62-.34,1.1t-.26.94q-.12.46-.26,1.08.27.82.63,2t.63,2.38a20.83,20.83,0,0,1,.39,2.45,7.54,7.54,0,0,1-.07,2.18,3.24,3.24,0,0,1-.72,1.56,2,2,0,0,1-1.56.6,2.24,2.24,0,0,1-2.13-1.37,5.43,5.43,0,0,1-.51-2.61A17.34,17.34,0,0,1,19,25.94q.21-1.39.55-2.9-.51-1.44-1.11-2.93l-1.22-3-1-2.5q-.62,3.33-1.51,7Q13.81,25,12.8,28.1t-2.11,5.74Q8.15,40,5.58,42.39a6.26,6.26,0,0,1-1.85,1.27A4.29,4.29,0,0,1,2.15,44ZM14.73,2.13a1.53,1.53,0,0,0-.07.38,4.18,4.18,0,0,0,0,.89q.07.45.17,1t.27,1.2A12,12,0,0,0,15,3.05,4.32,4.32,0,0,0,14.73,2.13Zm6.14,25a8.4,8.4,0,0,0,0,2.09,4.82,4.82,0,0,0,.22.89c.07.16.16.24.27.24a1.5,1.5,0,0,0,0-.39,8.3,8.3,0,0,0-.07-.87A12.11,12.11,0,0,0,20.87,27.16Zm9.43,6q-.51.79-1.2,1.7a12.59,12.59,0,0,0-1.18,1.89,6.57,6.57,0,0,0-.65,2,2.78,2.78,0,0,0,.36,1.87,1.32,1.32,0,0,0,1.2.69q.44,0,.74-.67A7.43,7.43,0,0,0,30,38.8a22.37,22.37,0,0,0,.22-2.57Q30.3,34.77,30.3,33.16Z"/><path class="cls-1" d="M46.8,19.79a1,1,0,0,1,.63.46,1,1,0,0,1,.12.77s-.09.28-.21.7l-.45,1.63q-.28,1-.69,2.25t-.89,2.59q-.58,1.61-1.13,2.86t-1.06,2.18q-.38.58-.69,1a5.77,5.77,0,0,1-.65.79,2.83,2.83,0,0,1-1.89.89h0a2.44,2.44,0,0,1-2.2-1.32,8.76,8.76,0,0,1-1.06-3.31A21.93,21.93,0,0,1,36.48,27,30.06,30.06,0,0,1,37,22.74a15.86,15.86,0,0,1,1-3.31q.6-1.32,1.25-1.32t1,1.17a13.35,13.35,0,0,1,.33,2.91q0,1.75-.1,3.81t-.31,3.81q-.17,1.75-.29,2.92t0,1.17l.33-.22a3.79,3.79,0,0,0,.7-.84A15.92,15.92,0,0,0,42,30.9q.62-1.27,1.41-3.43.45-1.27.84-2.52t.69-2.23q.29-1,.6-2.18a1,1,0,0,1,.48-.63A1,1,0,0,1,46.8,19.79Zm-7.13-3.22a1.33,1.33,0,0,1-1-.39,1.29,1.29,0,0,1-.39-.94,1.19,1.19,0,0,1,.39-.89,1.36,1.36,0,0,1,1-.38,1.5,1.5,0,0,1,1,.38,1.14,1.14,0,0,1,.45.89,1.22,1.22,0,0,1-.45.94A1.46,1.46,0,0,1,39.67,16.56Z"/><path class="cls-1" d="M60.79,19.82a1,1,0,0,1,.57.53,1,1,0,0,1,.05.77c-.21.55-.4,1.11-.58,1.7l-.55,1.73q-.75,2.3-1.56,4.54a21.22,21.22,0,0,1-1.94,4.06,10.29,10.29,0,0,1-2.92,3.09,7.43,7.43,0,0,1-4.22,1.23,7.06,7.06,0,0,1-2.35-.43,6.31,6.31,0,0,1-2.11-1.22A6.67,6.67,0,0,1,43,30.73a1,1,0,0,1,.29-.72.93.93,0,0,1,.7-.31h0a1,1,0,0,1,.72.29,1,1,0,0,1,.31.74,5.13,5.13,0,0,0,.41,2.16,4.09,4.09,0,0,0,1.06,1.44,4,4,0,0,0,1.46.79,5.69,5.69,0,0,0,1.63.24h0A2.09,2.09,0,0,0,50.9,35a2.44,2.44,0,0,0,.79-.91,4.77,4.77,0,0,0,.43-1.27,7.43,7.43,0,0,0,.14-1.42,5,5,0,0,0-.63-2.5A12.16,12.16,0,0,0,50,26.72q-1-1.06-2.07-2.18a19.66,19.66,0,0,1-2.08-2.45,13.56,13.56,0,0,1-1.59-2.95,10.17,10.17,0,0,1-.63-3.74,8.62,8.62,0,0,1,.17-1.61,6.13,6.13,0,0,1,.58-1.68,4,4,0,0,1,1.13-1.34,2.92,2.92,0,0,1,1.82-.55,1.89,1.89,0,0,1,1.49.6,3.49,3.49,0,0,1,.75,1.47,7.55,7.55,0,0,1,.22,1.87A11.11,11.11,0,0,1,49.68,16a12.67,12.67,0,0,1-.6,2.42,16.9,16.9,0,0,1-1,2.31,9.32,9.32,0,0,0,1.46,1.47q.81.65,1.66,1.3T53,24.92a9.61,9.61,0,0,1,1.63,1.7A8.12,8.12,0,0,1,56.09,30a30.42,30.42,0,0,0,1.18-3q.53-1.56,1-3.14.27-.89.57-1.77t.6-1.73a1.13,1.13,0,0,1,.55-.6A.91.91,0,0,1,60.79,19.82Zm-14-1.34a11.6,11.6,0,0,0,.91-3.4,5.13,5.13,0,0,0-.22-2.47l-.1-.15-.07-.12-.07-.07h-.07a.14.14,0,0,0-.1,0,2,2,0,0,0-.51.94,7.16,7.16,0,0,0-.24,2.11A9.22,9.22,0,0,0,46.83,18.48Z"/><path class="cls-1" d="M74.71,19.82a1,1,0,0,1,.57.53,1,1,0,0,1,.05.77c-.21.55-.4,1.11-.58,1.7l-.55,1.73q-.76,2.3-1.56,4.54a21.25,21.25,0,0,1-1.94,4.06,10.29,10.29,0,0,1-2.92,3.09,7.43,7.43,0,0,1-4.22,1.23,7.05,7.05,0,0,1-2.35-.43,6.29,6.29,0,0,1-2.11-1.22,6.67,6.67,0,0,1-2.16-5.11,1,1,0,0,1,.29-.72.93.93,0,0,1,.7-.31h0a1,1,0,0,1,.72.29,1,1,0,0,1,.31.74,5.13,5.13,0,0,0,.41,2.16,4.1,4.1,0,0,0,1.06,1.44,4,4,0,0,0,1.46.79,5.69,5.69,0,0,0,1.63.24h0A2.09,2.09,0,0,0,64.82,35a2.43,2.43,0,0,0,.79-.91A4.75,4.75,0,0,0,66,32.84a7.47,7.47,0,0,0,.14-1.42,5,5,0,0,0-.63-2.5,12.18,12.18,0,0,0-1.59-2.19q-1-1.06-2.08-2.18a19.75,19.75,0,0,1-2.08-2.45,13.54,13.54,0,0,1-1.59-2.95,10.17,10.17,0,0,1-.63-3.74,8.62,8.62,0,0,1,.17-1.61,6.11,6.11,0,0,1,.58-1.68,4,4,0,0,1,1.13-1.34,2.91,2.91,0,0,1,1.82-.55,1.89,1.89,0,0,1,1.49.6,3.48,3.48,0,0,1,.75,1.47,7.55,7.55,0,0,1,.22,1.87A11.06,11.06,0,0,1,63.6,16,12.71,12.71,0,0,1,63,18.4a17,17,0,0,1-1,2.31,9.29,9.29,0,0,0,1.46,1.47q.81.65,1.66,1.3t1.8,1.42a9.6,9.6,0,0,1,1.63,1.7A8.13,8.13,0,0,1,70,30a30.17,30.17,0,0,0,1.18-3q.53-1.56,1-3.14.28-.89.57-1.77t.6-1.73a1.13,1.13,0,0,1,.55-.6A.91.91,0,0,1,74.71,19.82Zm-14-1.34a11.62,11.62,0,0,0,.91-3.4,5.12,5.12,0,0,0-.22-2.47l-.1-.15-.07-.12-.07-.07h-.07a.14.14,0,0,0-.1,0,2,2,0,0,0-.51.94,7.15,7.15,0,0,0-.24,2.11A9.22,9.22,0,0,0,60.76,18.48Z"/><path class="cls-1" d="M82.57,19.79a1,1,0,0,1,.63.46,1,1,0,0,1,.12.77s-.09.28-.21.7l-.45,1.63q-.28,1-.69,2.25t-.89,2.59Q80.51,29.8,80,31.05T78.9,33.23c-.25.39-.48.73-.69,1a5.77,5.77,0,0,1-.65.79,2.82,2.82,0,0,1-1.89.89h0a2.44,2.44,0,0,1-2.2-1.32,8.77,8.77,0,0,1-1.06-3.31A21.86,21.86,0,0,1,72.24,27a29.92,29.92,0,0,1,.55-4.29,15.8,15.8,0,0,1,1-3.31q.6-1.32,1.25-1.32t1,1.17a13.32,13.32,0,0,1,.33,2.91q0,1.75-.1,3.81T76,29.8q-.17,1.75-.29,2.92t0,1.17l.33-.22a3.82,3.82,0,0,0,.7-.84,16,16,0,0,0,1.06-1.92q.62-1.27,1.41-3.43.45-1.27.84-2.52t.69-2.23q.29-1,.6-2.18a1,1,0,0,1,.48-.63A1,1,0,0,1,82.57,19.79Zm-7.13-3.22a1.33,1.33,0,0,1-1-.39,1.29,1.29,0,0,1-.39-.94,1.2,1.2,0,0,1,.39-.89,1.36,1.36,0,0,1,1-.38,1.5,1.5,0,0,1,1,.38,1.14,1.14,0,0,1,.45.89,1.22,1.22,0,0,1-.45.94A1.46,1.46,0,0,1,75.43,16.56Z"/><path class="cls-1" d="M95.36,19.86a1,1,0,0,1,.46.63.94.94,0,0,1-.19.77,6.79,6.79,0,0,1-1.78,1.8,14.57,14.57,0,0,1-2.78,1.56l-.65.27v.27a7.47,7.47,0,0,1-.27,2.06,5.45,5.45,0,0,1-.82,1.71,4.45,4.45,0,0,1-1.56,1.41,4.22,4.22,0,0,1-2,.48,6,6,0,0,1-3.41-.91,5.93,5.93,0,0,1-2-2.26,6.78,6.78,0,0,1-.72-2.95,6.55,6.55,0,0,1,.6-2.95,5.76,5.76,0,0,1,1.9-2.26,5.34,5.34,0,0,1,3.19-.91,3.52,3.52,0,0,1,1.56.36,5.24,5.24,0,0,1,1.35,1,7,7,0,0,1,1.08,1.35A9.77,9.77,0,0,1,90,22.81a.52.52,0,0,0,.21-.07,13.69,13.69,0,0,0,2.28-1.27,5.06,5.06,0,0,0,1.39-1.34,1.11,1.11,0,0,1,.67-.46A.93.93,0,0,1,95.36,19.86Zm-7.71,7.92a3.56,3.56,0,0,0,.48-1,6.88,6.88,0,0,0,.24-1.23,11,11,0,0,1-2.47.31h-.46a2.6,2.6,0,0,1-.43,0,5.54,5.54,0,0,1-2-.65,7.84,7.84,0,0,0,.26,1.39,3.66,3.66,0,0,0,.53,1.15,2.26,2.26,0,0,0,2,1.1A2.23,2.23,0,0,0,87.64,27.78Zm-2.37-7.13a1.29,1.29,0,0,0-.7.21,2,2,0,0,0-.55.51,4.38,4.38,0,0,0-.39.67,3.08,3.08,0,0,0-.24.7,2.4,2.4,0,0,0,.57.58,2.6,2.6,0,0,0,1.29.41,7.16,7.16,0,0,0,2.85-.27,4.15,4.15,0,0,0-.41-.86,6.45,6.45,0,0,0-.63-.86,4.36,4.36,0,0,0-.8-.72A2.17,2.17,0,0,0,85.28,20.65Z"/><path class="cls-1" d="M104.45,37.59a2.3,2.3,0,0,1-1.82-.74,4.44,4.44,0,0,1-.94-1.94,11.63,11.63,0,0,1-.29-2.74q0-1.54.15-3.14t.36-3.14q.21-1.54.34-2.74a12.66,12.66,0,0,0,.1-1.94q0-.74-.38-.74-1.1,0-2.3,2.19a19.54,19.54,0,0,0-1.06,2.5q-.48,1.37-.89,2.67l-.5,1.51a10.83,10.83,0,0,1-.5,1.27,3.08,3.08,0,0,1-.55,1,1.53,1.53,0,0,1-.65.58,1.63,1.63,0,0,1-.58.14.85.85,0,0,1-.46-.12l-.43-.29a2.76,2.76,0,0,1-.91-1.42,10.16,10.16,0,0,1-.48-2.42,19.87,19.87,0,0,1,0-2.86A14.92,14.92,0,0,1,93,22.5a6.16,6.16,0,0,1,.84-2,1.45,1.45,0,0,1,1.29-.74,1,1,0,0,1,.72.38.92.92,0,0,1,.21.75c0,.53-.09,1-.12,1.41s-.08.89-.12,1.44-.09,1.11-.14,1.68q-.1,1.41-.1,2.26l.07-.21a1.82,1.82,0,0,1,.1-.24q.41-1.37.93-2.81a22.42,22.42,0,0,1,1.17-2.71,8.21,8.21,0,0,1,1.65-2.23A3.62,3.62,0,0,1,102,18.42a2.93,2.93,0,0,1,2.11.74,4.22,4.22,0,0,1,1.11,1.94,10.45,10.45,0,0,1,.36,2.74,26.52,26.52,0,0,1-.15,3.14q-.17,1.6-.43,3.14t-.45,2.74q-.19,1.2-.26,1.94t.17.74a1,1,0,0,0,.45-.24,3.62,3.62,0,0,0,.51-.58,11.57,11.57,0,0,0,.72-1.13,30.78,30.78,0,0,0,2.23-5.28q.51-1.44.93-2.83T110,23q.29-1.11.6-2.49a1,1,0,0,1,.46-.63,1.09,1.09,0,0,1,.77-.15,1,1,0,0,1,.63.46,1.08,1.08,0,0,1,.15.77s-.06.3-.17.77-.27,1.08-.48,1.82-.45,1.59-.72,2.54-.58,1.92-.93,2.9a35.52,35.52,0,0,1-2.37,5.62,9.82,9.82,0,0,1-1.47,2A2.89,2.89,0,0,1,104.45,37.59Z"/></g></g></svg>