<svg xmlns="http://www.w3.org/2000/svg" viewBox="0 0 301.46 45.59"><defs><style>.cls-1{fill:#e6e6e6;}</style></defs><title>Asset 15</title><g id="Layer_2" data-name="Layer 2"><g id="Layer_1-2" data-name="Layer 1"><path class="cls-1" d="M23.68,37.05a11.39,11.39,0,0,1-3-.39A7.33,7.33,0,0,1,18,35.25a9.58,9.58,0,0,1-2.25-2.76A17.22,17.22,0,0,1,14.08,28q-.86,1.65-1.51,2.71a9.16,9.16,0,0,1-1.27,1.68,3.3,3.3,0,0,1-1.3.84,5.24,5.24,0,0,1-1.61.22,5.84,5.84,0,0,1-3.82-1.34A9.93,9.93,0,0,1,1.9,28.62a19.5,19.5,0,0,1-1.51-5A27.92,27.92,0,0,1,0,17.9a30.63,30.63,0,0,1,.74-5.73,19.18,19.18,0,0,1,1.83-5A11.13,11.13,0,0,1,5.52,3.65a6.36,6.36,0,0,1,4-1.34,1,1,0,0,1,1,1,1,1,0,0,1-.29.72,1,1,0,0,1-.74.31A2.71,2.71,0,0,0,7.36,5.54,10,10,0,0,0,5.8,8.61a24.61,24.61,0,0,0-1,4.34,44.08,44.08,0,0,0-.41,5,41.62,41.62,0,0,0,.15,5,26.91,26.91,0,0,0,.72,4.34,10.29,10.29,0,0,0,1.27,3.07,2.2,2.2,0,0,0,1.83,1.17q1.27,0,2.38-1.71a30.78,30.78,0,0,0,2.56-5.56,21.45,21.45,0,0,1-.46-2.85q-.19-1.75-.21-3.74a33.42,33.42,0,0,1,.21-4,16.67,16.67,0,0,1,.79-3.63,7.71,7.71,0,0,1,1.49-2.66,3,3,0,0,1,2.37-1,2.73,2.73,0,0,1,.51.05.91.91,0,0,1,.5.29,1.93,1.93,0,0,1,.38.74,4.88,4.88,0,0,1,.15,1.39,24.44,24.44,0,0,1-.27,3.15q-.27,2-.79,4.25-.24,1-.63,2.59t-1,3.55a34.42,34.42,0,0,0,1.13,5,21,21,0,0,0,1.68,4A10,10,0,0,0,21.26,34a3.65,3.65,0,0,0,2.42,1q.86,0,2.33-1.78a24,24,0,0,0,3.12-5.62,10.36,10.36,0,0,1-1.8-2,15,15,0,0,1-1.58-2.79,18,18,0,0,1-1.11-3.53,20.26,20.26,0,0,1-.41-4.2,21.55,21.55,0,0,1,.41-4.36,12.57,12.57,0,0,1,1.17-3.4,6.48,6.48,0,0,1,1.82-2.19A3.92,3.92,0,0,1,30,4.37a4,4,0,0,1,3.58,1.94A10.52,10.52,0,0,1,34.86,12a33.39,33.39,0,0,1-.75,6.76,50.58,50.58,0,0,1-2.19,7.48,4.13,4.13,0,0,0,2.21.21,5.72,5.72,0,0,0,2-.82,8.37,8.37,0,0,0,1.75-1.51,9.25,9.25,0,0,0,1.3-1.89,1,1,0,0,1,.93-.55.93.93,0,0,1,.75.33,1.12,1.12,0,0,1,.27.74,1,1,0,0,1-.1.45,14.77,14.77,0,0,1-1.63,2.38,10.87,10.87,0,0,1-2,1.84,9,9,0,0,1-2.18,1.17A6.7,6.7,0,0,1,33,29,5.23,5.23,0,0,1,31,28.58a24,24,0,0,1-3.62,6.26Q25.43,37.06,23.68,37.05ZM17,9a4.12,4.12,0,0,0-.48,1.1,13.69,13.69,0,0,0-.36,1.58q-.15.89-.24,2t-.09,2.23v.55q.24-1.13.46-2.25T16.67,12q.15-1,.24-1.78A12.3,12.3,0,0,0,17,9ZM30,6.43a1.76,1.76,0,0,0-1.58,1.18,9.44,9.44,0,0,0-.81,3,25.48,25.48,0,0,0-.14,4A34.28,34.28,0,0,0,27.93,19a23.54,23.54,0,0,0,.91,3.74,6.23,6.23,0,0,0,1.29,2.38,47.28,47.28,0,0,0,2-6.89A31.2,31.2,0,0,0,32.8,12a10.13,10.13,0,0,0-.67-4.06A2.21,2.21,0,0,0,30,6.43Z"/><path class="cls-1" d="M52,39.49a2.49,2.49,0,0,1-1.92-.74,4.12,4.12,0,0,1-1-1.94,11.23,11.23,0,0,1-.24-2.74q0-1.54.21-3.14t.43-3.14q.26-1.54.39-2.74A11.08,11.08,0,0,0,50,23.11q-.05-.74-.46-.74a1.67,1.67,0,0,0-1.22.69,7.74,7.74,0,0,0-1.11,1.77,24.78,24.78,0,0,0-1,2.38q-.46,1.3-.84,2.54A23.46,23.46,0,0,1,44.62,32a8.36,8.36,0,0,1-.69,1.37,2,2,0,0,1-.63.67,1.33,1.33,0,0,1-.65.17q-1,0-1.7-1.39a14,14,0,0,1-1.13-3.65,35.82,35.82,0,0,1-.55-5.14,56.89,56.89,0,0,1,.07-5.9,51.9,51.9,0,0,1,.7-5.9,29.9,29.9,0,0,1,1.35-5.14,12.07,12.07,0,0,1,2-3.65,3.51,3.51,0,0,1,2.73-1.39,2.12,2.12,0,0,1,1.71.79,3.66,3.66,0,0,1,.65,2.37,13.6,13.6,0,0,1-.38,2.86A37.49,37.49,0,0,1,47,11.92q-.72,2.13-1.77,4.61t-2.38,5.2q0,.89-.05,1.73t0,1.66q0,1.54.07,3T43,30.37l.41-1.24q.48-1.65,1.06-3.22a17.58,17.58,0,0,1,1.32-2.83,7.38,7.38,0,0,1,1.66-2,3.18,3.18,0,0,1,2.06-.75,2.93,2.93,0,0,1,2.11.74A4.35,4.35,0,0,1,52.78,23a10.37,10.37,0,0,1,.39,2.74A24.36,24.36,0,0,1,53,28.88q-.17,1.6-.43,3.14t-.46,2.74q-.21,1.2-.27,1.94c0,.49,0,.74.14.74q.48,0,1.13-1.06a20.81,20.81,0,0,0,1.34-2.67q.69-1.61,1.35-3.53T57,26.58q.51-1.66.84-2.85a10.4,10.4,0,0,0,.33-1.36.87.87,0,0,1,.36-.58,1.13,1.13,0,0,1,.67-.21.92.92,0,0,1,.72.31,1,1,0,0,1,.27.69.39.39,0,0,1,0,.12.37.37,0,0,0,0,.12s-.06.3-.17.77-.27,1.08-.46,1.82-.43,1.59-.7,2.54-.58,1.92-.93,2.9A30.71,30.71,0,0,1,55,37.35Q53.59,39.49,52,39.49ZM46.14,4.13q-.41,0-.86.93a14,14,0,0,0-.86,2.55q-.41,1.63-.74,3.82t-.53,4.7q.86-2,1.49-3.77t1-3.21q.39-1.42.58-2.43a9.11,9.11,0,0,0,.19-1.49,2.38,2.38,0,0,0-.1-.94C46.28,4.18,46.21,4.13,46.14,4.13Z"/><path class="cls-1" d="M70.25,39.22a2.5,2.5,0,0,1-1.83-.6,3.3,3.3,0,0,1-.81-1.83,15,15,0,0,1-.1-3.16q.1-1.92.27-4.56a6.12,6.12,0,0,1-.45.7l-.48.67A10.38,10.38,0,0,1,64.18,33a5.73,5.73,0,0,1-1.51.67,5.58,5.58,0,0,1-1.41.19,3.64,3.64,0,0,1-2.61-1A6.48,6.48,0,0,1,57,30.33a9.53,9.53,0,0,1-.55-3.28,9.16,9.16,0,0,1,.58-3.29,6.34,6.34,0,0,1,1.73-2.54,4.36,4.36,0,0,1,2.9-1,6.52,6.52,0,0,1,.67,0,2.85,2.85,0,0,1,.72.19,3.58,3.58,0,0,1,.87.53,10.61,10.61,0,0,1,1.1,1,13.81,13.81,0,0,1,2.3,3.43,22.65,22.65,0,0,0,1.44-4.56.89.89,0,0,1,.43-.63A1.09,1.09,0,0,1,70,20q.55.07.82.86a7.93,7.93,0,0,1,.36,2,24.24,24.24,0,0,1,0,2.74q-.07,1.53-.21,3.1t-.31,3.09q-.17,1.51-.31,2.67T70.2,36.4q-.05.72.09.72t.39-.26a4.73,4.73,0,0,0,.75-1,23.4,23.4,0,0,0,1.11-2.2q.65-1.42,1.47-3.75.48-1.37.89-2.71t.7-2.38q.29-1,.63-2.35a1,1,0,0,1,.46-.63,1,1,0,0,1,.77-.12,1,1,0,0,1,.63.46,1,1,0,0,1,.12.77q-.34,1.37-.67,2.49t-.75,2.52q-.43,1.41-.94,2.85-.62,1.75-1.18,3.12a19.21,19.21,0,0,1-1.15,2.37Q71.93,39.21,70.25,39.22Zm-8.61-17q-.38,0-.69.7a7.87,7.87,0,0,0-.5,1.75,18.73,18.73,0,0,0-.26,2.28,15.06,15.06,0,0,0,0,2.3,6.23,6.23,0,0,0,.41,1.8c.21.49.48.75.82.77a2.74,2.74,0,0,0,1.56-.5,8.31,8.31,0,0,0,2.18-2.11,12.8,12.8,0,0,0,1-1.48A18.33,18.33,0,0,0,65,25.22a10.86,10.86,0,0,0-1.39-1.85A2.87,2.87,0,0,0,61.64,22.21Z"/><path class="cls-1" d="M92.68,1.29A3.41,3.41,0,0,1,94.33,4.2a1,1,0,0,1-.31.74,1,1,0,0,1-.72.29,1,1,0,0,1-1-1,1.22,1.22,0,0,0-.34-.87,2.58,2.58,0,0,0-.86-.58A6.46,6.46,0,0,0,90,2.38q-.58-.14-1.06-.21a14.75,14.75,0,0,0-1.68-.1,16.11,16.11,0,0,0-1.73.1l-2.16.26q-1.22.15-3,.33.14,2.26.17,5.11t0,6q-.05,3.14-.14,6.38t-.17,6.28q-.09,3-.14,5.71t0,4.68q0,2,.12,3.16t.38,1.15a.84.84,0,0,0,.21-.21q.14-.17.36-.51a9.45,9.45,0,0,0,.5-.89q.27-.55.65-1.41.48-1.2,1-2.83t1.13-3.69q.48-1.75.91-3.4t.74-2.93q.31-1.29.65-2.86a1,1,0,0,1,.43-.65.93.93,0,0,1,.77-.14.91.91,0,0,1,.67.43,1.09,1.09,0,0,1,.15.77s-.07.32-.21.89L88,26q-.33,1.39-.79,3.16t-1,3.58a51.22,51.22,0,0,1-2.37,6.86q-.34.79-.67,1.37t-.63,1a2.62,2.62,0,0,1-2,1.27,2.64,2.64,0,0,1-2.33-1.58,13.29,13.29,0,0,1-1.35-4.18,43.27,43.27,0,0,1-.58-6q-.12-3.38-.05-7t.29-7.1q.22-3.52.45-6.41t.34-4.92a19.65,19.65,0,0,0,.05-2.61,23.61,23.61,0,0,0-3,1.18,15.64,15.64,0,0,0-2.88,1.8A6.3,6.3,0,0,0,69,9.83a1,1,0,0,1-1,.79l-.14,0-.14,0a1,1,0,0,1-.63-.48A.92.92,0,0,1,67,9.31a6.57,6.57,0,0,1,1.41-2.67,12.38,12.38,0,0,1,2.33-2.11A18.81,18.81,0,0,1,73.44,3q1.37-.65,2.47-1.06A31.54,31.54,0,0,1,82.31.33Q84,.09,85.79,0a20.81,20.81,0,0,1,3.4.14,10.31,10.31,0,0,1,2,.43A7,7,0,0,1,92.68,1.29Z"/><path class="cls-1" d="M104.48,21.69a1,1,0,0,1,.63.46,1,1,0,0,1,.12.77s-.09.28-.21.7l-.45,1.63q-.28,1-.69,2.25T103,30.09q-.58,1.61-1.13,2.86t-1.06,2.18q-.38.58-.69,1a5.8,5.8,0,0,1-.65.79,2.83,2.83,0,0,1-1.89.89h0a2.44,2.44,0,0,1-2.2-1.32,8.76,8.76,0,0,1-1.06-3.31,21.94,21.94,0,0,1-.14-4.29,30.06,30.06,0,0,1,.55-4.29,15.83,15.83,0,0,1,1-3.31Q96.32,20,97,20t1,1.17a13.34,13.34,0,0,1,.33,2.91q0,1.75-.1,3.81t-.31,3.81q-.17,1.75-.29,2.92c-.08.78-.09,1.17,0,1.17l.33-.22a3.79,3.79,0,0,0,.7-.84,15.87,15.87,0,0,0,1.06-1.92q.62-1.27,1.41-3.43.45-1.27.84-2.52t.69-2.23q.29-1,.6-2.18a1,1,0,0,1,.48-.63A1,1,0,0,1,104.48,21.69Zm-7.13-3.22a1.33,1.33,0,0,1-1-.39,1.29,1.29,0,0,1-.39-.94,1.2,1.2,0,0,1,.39-.89,1.36,1.36,0,0,1,1-.38,1.5,1.5,0,0,1,1,.38,1.14,1.14,0,0,1,.45.89,1.22,1.22,0,0,1-.45.94A1.47,1.47,0,0,1,97.34,18.47Z"/><path class="cls-1" d="M118.47,21.73a1,1,0,0,1,.57.53,1,1,0,0,1,.05.77q-.31.82-.58,1.7L118,26.46q-.76,2.3-1.56,4.54a21.21,21.21,0,0,1-1.94,4.06,10.29,10.29,0,0,1-2.92,3.09,7.42,7.42,0,0,1-4.22,1.23A7.07,7.07,0,0,1,105,39a6.32,6.32,0,0,1-2.11-1.22,6.67,6.67,0,0,1-2.16-5.11,1,1,0,0,1,.29-.72.93.93,0,0,1,.7-.31h0a1,1,0,0,1,.72.29,1,1,0,0,1,.31.74,5.13,5.13,0,0,0,.41,2.16,4.08,4.08,0,0,0,1.06,1.44,4,4,0,0,0,1.46.79,5.71,5.71,0,0,0,1.63.24h0a2.09,2.09,0,0,0,1.22-.34,2.44,2.44,0,0,0,.79-.91,4.77,4.77,0,0,0,.43-1.27,7.43,7.43,0,0,0,.14-1.42,5,5,0,0,0-.63-2.5,12.15,12.15,0,0,0-1.59-2.2q-1-1.06-2.07-2.18A19.63,19.63,0,0,1,103.55,24,13.55,13.55,0,0,1,102,21a10.18,10.18,0,0,1-.63-3.74,8.64,8.64,0,0,1,.17-1.61,6.11,6.11,0,0,1,.58-1.68,4,4,0,0,1,1.13-1.34,2.92,2.92,0,0,1,1.82-.55,1.89,1.89,0,0,1,1.49.6,3.48,3.48,0,0,1,.75,1.47,7.55,7.55,0,0,1,.22,1.87,11.11,11.11,0,0,1-.14,1.82,12.66,12.66,0,0,1-.6,2.42,16.9,16.9,0,0,1-1,2.31,9.32,9.32,0,0,0,1.46,1.47q.81.65,1.66,1.3t1.8,1.42a9.64,9.64,0,0,1,1.63,1.7,8.13,8.13,0,0,1,1.47,3.43A30.43,30.43,0,0,0,115,29q.53-1.56,1-3.14.27-.89.57-1.77c.19-.58.39-1.16.6-1.73a1.14,1.14,0,0,1,.55-.6A.91.91,0,0,1,118.47,21.73Zm-14-1.34a11.6,11.6,0,0,0,.91-3.4,5.13,5.13,0,0,0-.22-2.47l-.1-.15-.07-.12-.07-.07h-.07a.14.14,0,0,0-.1,0,2,2,0,0,0-.51.94,7.16,7.16,0,0,0-.24,2.11A9.23,9.23,0,0,0,104.51,20.39Z"/><path class="cls-1" d="M139.32,45.59a3.69,3.69,0,0,1-2.35-.67,2.25,2.25,0,0,1-.84-1.87,7.81,7.81,0,0,1,1.42-3.75,53.75,53.75,0,0,1,4.54-6q.62-.72,1.22-1.34a15.9,15.9,0,0,1,1.29-1.18q.69-.57,1.49-1.17l1.8-1.32q-.75-.72-1.63-1.41a10.86,10.86,0,0,0-2-1.22,11.31,11.31,0,0,0-2.5-.84,14.93,14.93,0,0,0-3.19-.31,1,1,0,1,1,0-2.06,4.36,4.36,0,0,0,2.61-1.15A17.77,17.77,0,0,0,144,18.42a28.72,28.72,0,0,0,2.5-3.74,18.29,18.29,0,0,0,1.65-3.74,5.85,5.85,0,0,0,.26-2.88,1.47,1.47,0,0,0-1.66-1.15,9.23,9.23,0,0,0-6.07,2.55A29.85,29.85,0,0,0,134.83,17q.17,1,.48,2.69t.53,3.57q.22,1.9.26,3.86a13.44,13.44,0,0,1-.36,3.52,5.74,5.74,0,0,1-1.32,2.55,3.39,3.39,0,0,1-2.61,1A3.26,3.26,0,0,1,129.08,33a5.59,5.59,0,0,1-1-3.52,13.82,13.82,0,0,1,.27-2.59,27.46,27.46,0,0,1,.75-3,30.68,30.68,0,0,1,1.18-3.16q.7-1.61,1.56-3.22l-.69-3.94q-.62.28-1.35.53l-1.59.53a.88.88,0,0,1-.27,0,1.13,1.13,0,0,1-.72-.27.91.91,0,0,1-.34-.75.9.9,0,0,1,.45-.75,5.12,5.12,0,0,1,1.06-.55c.41-.16.85-.31,1.3-.45a8.83,8.83,0,0,0,1.2-.45,22.78,22.78,0,0,1-.21-2.95,9.91,9.91,0,0,1,.36-2.78A7.6,7.6,0,0,1,132,3.6a4.22,4.22,0,0,1,1.37-1.34A3.15,3.15,0,0,1,135,1.8a2.62,2.62,0,0,1,2,1,3.71,3.71,0,0,1,.84,2.54,6.32,6.32,0,0,1-.39,2.25,9.07,9.07,0,0,1-1,1.9A9.21,9.21,0,0,1,135.24,11a8,8,0,0,1-1.3,1c0,.37.1.69.15,1s.12.62.19,1a26.21,26.21,0,0,1,6.24-7,10.69,10.69,0,0,1,6.24-2.16,5.3,5.3,0,0,1,3.77,1.29,4.72,4.72,0,0,1,1.37,3.62,10.5,10.5,0,0,1-.62,3.36,17.72,17.72,0,0,1-1.73,3.62A22.31,22.31,0,0,1,147,20.15a16,16,0,0,1-3.24,2.71,17.69,17.69,0,0,1,4.08,1.25,10.46,10.46,0,0,1,3.05,2.11l1.53-1.13q.74-.55,1.36-1.06a11.26,11.26,0,0,0,1-1,4.31,4.31,0,0,0,.63-.84.83.83,0,0,1,.39-.39,1.24,1.24,0,0,1,.53-.12,1,1,0,0,1,.76.31,1,1,0,0,1,.27.69,1.88,1.88,0,0,1-.46,1.12,10,10,0,0,1-1.2,1.27q-.74.67-1.68,1.37l-1.9,1.39.24.51a10.93,10.93,0,0,1,.65,1.8,6.52,6.52,0,0,1,.21,1.9,10.64,10.64,0,0,1-.58,3.48A14.16,14.16,0,0,1,151,38.74a15.43,15.43,0,0,1-2.35,2.78,16.44,16.44,0,0,1-2.9,2.18,14.52,14.52,0,0,1-3.21,1.41A11.41,11.41,0,0,1,139.32,45.59ZM132.5,20.87a31,31,0,0,0-1.71,4.65,15.12,15.12,0,0,0-.62,3.93,5,5,0,0,0,.33,1.94,1.29,1.29,0,0,0,1.32.77,1.78,1.78,0,0,0,.65-.12,1.1,1.1,0,0,0,.53-.5,3.25,3.25,0,0,0,.34-1.06,11.35,11.35,0,0,0,.12-1.85,27.17,27.17,0,0,0-.27-3.55Q132.91,23,132.5,20.87Zm2.5-17a.84.84,0,0,0-.65.46,4.16,4.16,0,0,0-.51,1.27,10.18,10.18,0,0,0-.27,1.83,10,10,0,0,0,.1,2.16,4.67,4.67,0,0,0,1.77-2,5.9,5.9,0,0,0,.39-2.19,2.1,2.1,0,0,0-.27-1.17Q135.27,3.82,135,3.82Zm14.2,26.06-1.7,1.25q-.77.57-1.44,1.11t-1.25,1.12a16.13,16.13,0,0,0-1.13,1.22q-1.58,1.89-2.62,3.33t-1.68,2.49a12,12,0,0,0-.89,1.7,3,3,0,0,0-.26.93v.19a.19.19,0,0,0,.1.15,1,1,0,0,0,.33.12,3.3,3.3,0,0,0,.67.05,5.89,5.89,0,0,0,2.43-.62,12.46,12.46,0,0,0,2.62-1.66,16.63,16.63,0,0,0,2.4-2.42A15.12,15.12,0,0,0,148.63,36a9.59,9.59,0,0,0,.93-3.07A6.22,6.22,0,0,0,149.2,29.89Z"/><path class="cls-1" d="M161.3,36.82a4.92,4.92,0,0,1-2.73-1,8.24,8.24,0,0,1-2-2.3,11.45,11.45,0,0,1-1.29-3.16,15.84,15.84,0,0,1-.15-7.1,9.66,9.66,0,0,1,1.17-3.07A6.57,6.57,0,0,1,158.35,18a5.36,5.36,0,0,1,3-.82,1.89,1.89,0,0,1,1.46.62,2.2,2.2,0,0,1,.56,1.54,4.36,4.36,0,0,1-1.32,2.9,10.76,10.76,0,0,1-3.58,2.49c0,.25,0,.5-.05.75s0,.51,0,.79a20.59,20.59,0,0,0,.21,2.79,16.65,16.65,0,0,0,.6,2.74,9,9,0,0,0,.93,2.09,1.47,1.47,0,0,0,1.18.84,2.84,2.84,0,0,0,1.89-1.06,14.41,14.41,0,0,0,2-2.81,32.91,32.91,0,0,0,1.92-4,37.57,37.57,0,0,0,1.53-4.51.87.87,0,0,1,.34-.55,1,1,0,0,1,.62-.21,1,1,0,0,1,.77.33,1.08,1.08,0,0,1,.29.74.36.36,0,0,1,0,.12.38.38,0,0,0,0,.12,40.88,40.88,0,0,1-1.82,5.33,26.84,26.84,0,0,1-2.31,4.41,13.65,13.65,0,0,1-2.61,3A4.19,4.19,0,0,1,161.3,36.82Zm0-17.56a1.14,1.14,0,0,0-.69.26,3.3,3.3,0,0,0-.65.67,7.09,7.09,0,0,0-.58.93,6.2,6.2,0,0,0-.45,1.06,6.21,6.21,0,0,0,1.77-1.49,3.7,3.7,0,0,0,.53-.94.82.82,0,0,0,.07-.29Z"/><path class="cls-1" d="M180.68,39.22a2.5,2.5,0,0,1-1.83-.6,3.31,3.31,0,0,1-.81-1.83,15,15,0,0,1-.1-3.16q.1-1.92.27-4.56a6,6,0,0,1-.45.7l-.48.67A10.35,10.35,0,0,1,174.61,33a5.7,5.7,0,0,1-1.51.67,5.58,5.58,0,0,1-1.41.19,3.63,3.63,0,0,1-2.61-1,6.49,6.49,0,0,1-1.61-2.52,9.53,9.53,0,0,1-.55-3.28,9.15,9.15,0,0,1,.58-3.29,6.31,6.31,0,0,1,1.73-2.54,4.36,4.36,0,0,1,2.9-1,6.54,6.54,0,0,1,.67,0,2.83,2.83,0,0,1,.72.19,3.55,3.55,0,0,1,.88.53,10.61,10.61,0,0,1,1.1,1,13.79,13.79,0,0,1,2.3,3.43,22.56,22.56,0,0,0,1.44-4.56.89.89,0,0,1,.43-.63,1.09,1.09,0,0,1,.77-.15c.37,0,.64.33.82.86a8,8,0,0,1,.36,2,24.34,24.34,0,0,1,0,2.74q-.07,1.53-.21,3.1t-.31,3.09l-.31,2.67q-.14,1.17-.19,1.89c0,.48,0,.72.09.72s.2-.09.39-.26a4.77,4.77,0,0,0,.75-1,23.61,23.61,0,0,0,1.12-2.2q.65-1.42,1.47-3.75.48-1.37.89-2.71t.7-2.38q.29-1,.63-2.35a1,1,0,0,1,.46-.63,1,1,0,0,1,.77-.12,1,1,0,0,1,.63.46,1,1,0,0,1,.12.77q-.35,1.37-.67,2.49t-.75,2.52q-.43,1.41-.94,2.85-.62,1.75-1.18,3.12A19.14,19.14,0,0,1,184,36.27Q182.36,39.21,180.68,39.22Zm-8.61-17q-.38,0-.69.7a8,8,0,0,0-.5,1.75,18.74,18.74,0,0,0-.26,2.28,15.06,15.06,0,0,0,0,2.3,6.26,6.26,0,0,0,.41,1.8c.21.49.48.75.82.77a2.74,2.74,0,0,0,1.56-.5,8.31,8.31,0,0,0,2.18-2.11,12.67,12.67,0,0,0,1-1.48,18.33,18.33,0,0,0-1.25-2.5A10.91,10.91,0,0,0,174,23.37,2.87,2.87,0,0,0,172.07,22.21Z"/><path class="cls-1" d="M198.86,37.84a2,2,0,0,1-1.54-.75,3.3,3.3,0,0,1-.46-.74,6.31,6.31,0,0,1-.41-1.29,12.47,12.47,0,0,1-.26-2.09q-.07-1.27,0-3.16Q193.85,34,190.9,34a4.07,4.07,0,0,1-2.74-.91,5.75,5.75,0,0,1-1.61-2.28,10,10,0,0,1-.67-3,12.73,12.73,0,0,1,.1-3,7.79,7.79,0,0,1,.69-2.28c.31-.61.67-.91,1.08-.91a1.37,1.37,0,0,1,1.32.75,4.86,4.86,0,0,1,.48,1.9,22.49,22.49,0,0,1,0,2.49q-.05,1.34,0,2.49a6.18,6.18,0,0,0,.31,1.9,1,1,0,0,0,1,.75,3.15,3.15,0,0,0,2.31-1.37,14.71,14.71,0,0,0,2.18-3.94c.28-.71.52-1.41.74-2.11s.39-1.31.53-1.85.29-1.15.45-1.83a.84.84,0,0,1,.41-.62,1.44,1.44,0,0,1,.75-.21q.79,0,1.13,1.17a10.89,10.89,0,0,1,.36,2.91q0,1.75-.15,3.81t-.38,3.81q-.21,1.75-.34,2.92c-.09.78-.09,1.17,0,1.17l.33-.22a4,4,0,0,0,.72-.84A14.2,14.2,0,0,0,201,32.8q.62-1.27,1.41-3.43.45-1.27.84-2.52t.67-2.23l.62-2.18a1,1,0,0,1,.46-.63,1,1,0,0,1,.77-.12,1,1,0,0,1,.63.46,1,1,0,0,1,.12.77,7,7,0,0,1-.17.7q-.17.64-.46,1.63t-.69,2.25q-.4,1.25-.87,2.59-.58,1.61-1.13,2.86a20.19,20.19,0,0,1-1.1,2.18q-.35.58-.67,1a6.79,6.79,0,0,1-.67.79,2.83,2.83,0,0,1-1.89.89Z"/><path class="cls-1" d="M220.91,1.29a3.41,3.41,0,0,1,1.65,2.92,1,1,0,0,1-.31.74,1,1,0,0,1-.72.29,1,1,0,0,1-1-1,1.23,1.23,0,0,0-.34-.87,2.61,2.61,0,0,0-.86-.58,6.48,6.48,0,0,0-1.1-.36c-.39-.09-.74-.16-1.06-.21a14.73,14.73,0,0,0-1.68-.1,16.14,16.14,0,0,0-1.73.1l-2.16.26q-1.22.15-3,.33.14,2.26.17,5.11t0,6q0,3.14-.14,6.38t-.17,6.28q-.08,3-.14,5.71t0,4.68q0,2,.12,3.16t.38,1.15A.86.86,0,0,0,209,41c.09-.11.21-.29.36-.51a9.58,9.58,0,0,0,.5-.89q.28-.55.65-1.41.48-1.2,1-2.83t1.13-3.69q.48-1.75.91-3.4t.74-2.93q.31-1.29.65-2.86a1,1,0,0,1,1.2-.79.91.91,0,0,1,.67.43,1.09,1.09,0,0,1,.15.77s-.07.32-.21.89L216.22,26q-.33,1.39-.79,3.16t-1,3.58a51.41,51.41,0,0,1-2.37,6.86q-.34.79-.67,1.37t-.63,1a2.36,2.36,0,0,1-4.32-.31,13.26,13.26,0,0,1-1.36-4.18,43.33,43.33,0,0,1-.58-6q-.12-3.38-.05-7t.29-7.1q.22-3.52.45-6.41t.34-4.92a19.84,19.84,0,0,0,.05-2.61,23.48,23.48,0,0,0-3,1.18,15.64,15.64,0,0,0-2.88,1.8,6.3,6.3,0,0,0-2.5,3.29,1,1,0,0,1-1,.79l-.14,0-.14,0a1,1,0,0,1-.63-.48.91.91,0,0,1-.09-.79,6.58,6.58,0,0,1,1.41-2.67A12.35,12.35,0,0,1,199,4.53,18.8,18.8,0,0,1,201.67,3q1.37-.65,2.47-1.06a30.67,30.67,0,0,1,3-.93,31.24,31.24,0,0,1,3.36-.65Q212.26.09,214,0a20.83,20.83,0,0,1,3.4.14,10.29,10.29,0,0,1,2,.43A7,7,0,0,1,220.91,1.29Z"/><path class="cls-1" d="M224.13,21.69a1,1,0,0,1,.63.46,1,1,0,0,1,.12.77s-.09.28-.21.7l-.45,1.63q-.28,1-.69,2.25t-.89,2.59q-.58,1.61-1.13,2.86t-1.06,2.18q-.38.58-.69,1a5.88,5.88,0,0,1-.65.79,2.83,2.83,0,0,1-1.89.89h0a2.44,2.44,0,0,1-2.2-1.32,8.73,8.73,0,0,1-1.06-3.31,21.94,21.94,0,0,1-.14-4.29,30.21,30.21,0,0,1,.55-4.29,15.89,15.89,0,0,1,1-3.31Q216,20,216.62,20t1,1.17a13.43,13.43,0,0,1,.33,2.91q0,1.75-.1,3.81t-.31,3.81q-.17,1.75-.29,2.92c-.08.78-.09,1.17,0,1.17l.33-.22a3.76,3.76,0,0,0,.7-.84,15.68,15.68,0,0,0,1.06-1.92q.62-1.27,1.41-3.43.45-1.27.84-2.52t.69-2.23q.29-1,.6-2.18a1,1,0,0,1,.48-.63A1,1,0,0,1,224.13,21.69ZM217,18.47a1.32,1.32,0,0,1-1-.39,1.28,1.28,0,0,1-.39-.94,1.19,1.19,0,0,1,.39-.89,1.36,1.36,0,0,1,1-.38,1.5,1.5,0,0,1,1,.38,1.14,1.14,0,0,1,.45.89,1.22,1.22,0,0,1-.45.94A1.47,1.47,0,0,1,217,18.47Z"/><path class="cls-1" d="M231.57,39.15a4.46,4.46,0,0,1-2.3-.58,3.29,3.29,0,0,1-1.47-1.68,3.46,3.46,0,0,1,.1-2.81s0-.08,0-.09a.16.16,0,0,0,0-.09,1.7,1.7,0,0,1-.36.22,1.59,1.59,0,0,1-.46.12q-.79.07-1.56-1.27a15.6,15.6,0,0,1-1.39-3.58,41.7,41.7,0,0,1-1-5.14,52.85,52.85,0,0,1-.5-5.93,42.51,42.51,0,0,1,.24-6A22.74,22.74,0,0,1,224,7.17a9.74,9.74,0,0,1,2.25-3.69,4.85,4.85,0,0,1,3.55-1.41,2.18,2.18,0,0,1,1.92,1,5,5,0,0,1,.41,3.05,21.71,21.71,0,0,1-.93,4.22q-.72,2.33-1.89,5.2t-2.74,6.09q0,1.85,0,3.55c0,1.13.08,2.18.17,3.14q.07,1.17.19,1.9t.22,1.18a.1.1,0,0,0,0-.07.25.25,0,0,1,0-.1q.21-.48.41-1.08t.41-1.25q.45-1.41,1-2.88a15.83,15.83,0,0,1,1.29-2.74,8.11,8.11,0,0,1,1.88-2.3A4.5,4.5,0,0,1,235,20a3.21,3.21,0,0,1,2,.69,5.85,5.85,0,0,1,1.46,1.7,8.43,8.43,0,0,1,.87,2.2,10.66,10.66,0,0,1,.33,2.18,9.18,9.18,0,0,0,1.17-.72,5.37,5.37,0,0,0,.94-.89,8.41,8.41,0,0,0,.82-1.2,14.35,14.35,0,0,0,.81-1.68,1,1,0,0,1,1.9.05,1,1,0,0,1,0,.77,17.38,17.38,0,0,1-1.23,2.37,9.47,9.47,0,0,1-1.32,1.65,8,8,0,0,1-1.47,1.15,12.4,12.4,0,0,1-1.7.84,17,17,0,0,1-.74,3.19,13.71,13.71,0,0,1-1.56,3.27,9.47,9.47,0,0,1-2.44,2.56A5.52,5.52,0,0,1,231.57,39.15Zm-1.75-35s-.15.07-.31.21a2.81,2.81,0,0,0-.55.82,18.51,18.51,0,0,0-1.29,4.36,55.69,55.69,0,0,0-.84,6.65q.79-1.78,1.39-3.38t1-3a22.36,22.36,0,0,0,.7-2.66,11.88,11.88,0,0,0,.21-1.66,3.91,3.91,0,0,0-.05-.91,2.32,2.32,0,0,0-.1-.36A.28.28,0,0,0,229.82,4.13ZM235,22.07a2.38,2.38,0,0,0-1.68.72A7.28,7.28,0,0,0,232,24.62a18.21,18.21,0,0,0-1.08,2.44q-.48,1.32-.86,2.52l-.86,2.4.82-.79a16.63,16.63,0,0,1,1.42-1.12,12.07,12.07,0,0,1,1.37-.82,15.58,15.58,0,0,1,1.46-.65l1.68-.63c0-.27,0-.73,0-1.37a19.36,19.36,0,0,0-.07-2,11.8,11.8,0,0,0-.27-1.78Q235.41,22.07,235,22.07Zm.69,8.16q-.86.28-1.46.53a9.43,9.43,0,0,0-1.06.53,6.85,6.85,0,0,0-.87.62q-.41.34-.89.79a5.32,5.32,0,0,0-1.56,2,2.06,2.06,0,0,0-.12,1.42q.38,1,1.85,1a2.34,2.34,0,0,0,1.7-.69,5.55,5.55,0,0,0,1.17-1.71,12.71,12.71,0,0,0,.75-2.23C235.38,31.66,235.55,30.92,235.69,30.23Z"/><path class="cls-1" d="M257.46,21.76a1,1,0,0,1,.46.63.94.94,0,0,1-.19.77A6.82,6.82,0,0,1,256,25a14.64,14.64,0,0,1-2.78,1.56l-.65.27v.28a7.42,7.42,0,0,1-.28,2.06,5.39,5.39,0,0,1-.82,1.71,4.44,4.44,0,0,1-1.56,1.41,4.23,4.23,0,0,1-2,.48,6,6,0,0,1-3.41-.91,5.94,5.94,0,0,1-2-2.26,6.78,6.78,0,0,1-.72-2.95,6.53,6.53,0,0,1,.6-2.95,5.74,5.74,0,0,1,1.9-2.26,5.34,5.34,0,0,1,3.19-.91,3.51,3.51,0,0,1,1.56.36,5.25,5.25,0,0,1,1.36,1,7,7,0,0,1,1.08,1.35,9.89,9.89,0,0,1,.77,1.54.51.51,0,0,0,.21-.07,13.69,13.69,0,0,0,2.28-1.27A5.08,5.08,0,0,0,256,22a1.11,1.11,0,0,1,.67-.46A.94.94,0,0,1,257.46,21.76Zm-7.71,7.92a3.52,3.52,0,0,0,.48-1,6.78,6.78,0,0,0,.24-1.24,11,11,0,0,1-2.47.31h-.46a2.64,2.64,0,0,1-.43,0,5.56,5.56,0,0,1-2-.65,7.82,7.82,0,0,0,.26,1.39,3.69,3.69,0,0,0,.53,1.15,2.26,2.26,0,0,0,2,1.1A2.23,2.23,0,0,0,249.75,29.68Zm-2.37-7.13a1.29,1.29,0,0,0-.7.21,2,2,0,0,0-.55.52,4.33,4.33,0,0,0-.39.67,3.12,3.12,0,0,0-.24.7,2.41,2.41,0,0,0,.57.58,2.6,2.6,0,0,0,1.29.41,7.16,7.16,0,0,0,2.85-.27,4.11,4.11,0,0,0-.41-.86,6.39,6.39,0,0,0-.63-.86,4.4,4.4,0,0,0-.8-.72A2.19,2.19,0,0,0,247.38,22.55Z"/><path class="cls-1" d="M270.08,21.76a1,1,0,0,1,.46.63.93.93,0,0,1-.19.77,6.79,6.79,0,0,1-1.78,1.8,14.64,14.64,0,0,1-2.78,1.56l-.65.27v.28a7.49,7.49,0,0,1-.27,2.06,5.43,5.43,0,0,1-.82,1.71,4.46,4.46,0,0,1-1.56,1.41,4.23,4.23,0,0,1-2,.48A5.78,5.78,0,0,1,255,29.56a6.78,6.78,0,0,1-.72-2.95,6.53,6.53,0,0,1,.6-2.95,5.76,5.76,0,0,1,1.9-2.26,5.34,5.34,0,0,1,3.19-.91,3.5,3.5,0,0,1,1.56.36,5.25,5.25,0,0,1,1.36,1A7,7,0,0,1,264,23.17a9.72,9.72,0,0,1,.77,1.54.51.51,0,0,0,.21-.07,13.67,13.67,0,0,0,2.28-1.27A5,5,0,0,0,268.64,22a1.12,1.12,0,0,1,.67-.46A.94.94,0,0,1,270.08,21.76Zm-7.72,7.92a3.58,3.58,0,0,0,.48-1,7.13,7.13,0,0,0,.24-1.24,11,11,0,0,1-2.47.31h-.46a2.64,2.64,0,0,1-.43,0,5.56,5.56,0,0,1-2-.65,7.65,7.65,0,0,0,.26,1.39,3.65,3.65,0,0,0,.53,1.15,2.26,2.26,0,0,0,2,1.1A2.23,2.23,0,0,0,262.37,29.68ZM260,22.55a1.29,1.29,0,0,0-.7.21,1.93,1.93,0,0,0-.55.52,4,4,0,0,0-.39.67,2.94,2.94,0,0,0-.24.7,2.38,2.38,0,0,0,.57.58,2.59,2.59,0,0,0,1.29.41,7.15,7.15,0,0,0,2.85-.27,4.2,4.2,0,0,0-.41-.86,6.39,6.39,0,0,0-.63-.86,4.41,4.41,0,0,0-.81-.72A2.18,2.18,0,0,0,260,22.55Z"/><path class="cls-1" d="M282.33,39.22a3.27,3.27,0,0,1-2.18-.63A4.13,4.13,0,0,1,279,37a9.1,9.1,0,0,1-.57-2.06,13.52,13.52,0,0,0-.48-2.06,4.22,4.22,0,0,0-.89-1.59,2.31,2.31,0,0,0-1.78-.63h-.1l-.46,1a8,8,0,0,1-1.29,2,1.55,1.55,0,0,1-1.2.53q-1,0-1.73-1.39a13.38,13.38,0,0,1-1.18-3.64,36.79,36.79,0,0,1-.6-5.14,53.1,53.1,0,0,1,0-5.9,52.25,52.25,0,0,1,.67-5.9,27.49,27.49,0,0,1,1.36-5.14,11.69,11.69,0,0,1,2.09-3.64,3.72,3.72,0,0,1,2.85-1.39,2.05,2.05,0,0,1,1.89,1A5,5,0,0,1,278,6.16a21.71,21.71,0,0,1-.93,4.22q-.72,2.33-1.89,5.2t-2.74,6.09q0,1.75,0,3.41t.07,3.14c0,.66.08,1.23.1,1.71s.06.88.1,1.2q.24-.48.5-1c.17-.37.35-.75.53-1.17q.58-1.37,1.3-2.85a22.17,22.17,0,0,1,1.61-2.78,8.31,8.31,0,0,1,2.09-2.23,4.78,4.78,0,0,1,2.85-1,3.44,3.44,0,0,1,1.23.19,2.25,2.25,0,0,1,.77.48,1.85,1.85,0,0,1,.41.58,2.4,2.4,0,0,1,.15.5,2.74,2.74,0,0,1-.12,1.3,6.31,6.31,0,0,1-.62,1.34,8.45,8.45,0,0,1-.87,1.2c-.32.37-.62.69-.89,1A19.7,19.7,0,0,1,280.12,28a16.65,16.65,0,0,1-1.7,1.2,3.41,3.41,0,0,1,1.54,1,6.27,6.27,0,0,1,1,1.6,9.82,9.82,0,0,1,.58,1.82c.14.63.24,1.21.31,1.73s.13,1,.19,1.29.13.5.22.5h.07l.19-.05a1.51,1.51,0,0,0,.39-.24,4.1,4.1,0,0,0,.56-.58,9,9,0,0,0,.74-1.08A17.1,17.1,0,0,0,285.36,33q.57-1.29,1.18-2.93.52-1.44.94-2.81t.72-2.45q.29-1.08.63-2.42a1,1,0,0,1,.46-.63,1.09,1.09,0,0,1,.77-.15,1,1,0,0,1,.65.48,1.19,1.19,0,0,1,.14.79s-.09.3-.21.75-.27,1.05-.48,1.78-.46,1.56-.75,2.49-.62,1.88-1,2.86q-.62,1.75-1.25,3.14A21.22,21.22,0,0,1,286,36.27Q284.25,39.21,282.33,39.22ZM275.71,4.13c-.18,0-.4.21-.65.62A13.58,13.58,0,0,0,273.67,9a57.83,57.83,0,0,0-.91,7.1q.76-1.75,1.34-3.33t1-3a25.35,25.35,0,0,0,.67-2.66A14.26,14.26,0,0,0,276,5.44a2.92,2.92,0,0,0-.05-.91,3.31,3.31,0,0,0-.12-.36A.21.21,0,0,0,275.71,4.13ZM281.13,23a1,1,0,0,0-1.2-.29,3.52,3.52,0,0,0-1.23,1.12,13.65,13.65,0,0,0-1.2,2q-.58,1.13-1.1,2.19a4.81,4.81,0,0,0,1.7-.86,12.12,12.12,0,0,0,1.71-1.51A7.83,7.83,0,0,0,281,24C281.26,23.52,281.31,23.18,281.13,23Z"/><path class="cls-1" d="M296.08,28.72a1,1,0,0,1-.7-.27,1,1,0,0,1-.29-.72.77.77,0,0,1,.17-.51l0,0a14.5,14.5,0,0,0,.67-1.7q.46-1.32,1-3.07t.94-3.69q.45-1.94.67-3.57a10.52,10.52,0,0,0,.09-2.69q-.14-1.06-.79-1.06a2.6,2.6,0,0,0-1.36.5,6.91,6.91,0,0,0-1.77,2,1,1,0,0,1-.93.48.89.89,0,0,1-.65-.28.92.92,0,0,1-.27-.69,1.09,1.09,0,0,1,.17-.58l0,0A8.14,8.14,0,0,1,296,9.93h0a3.42,3.42,0,0,1,.94-.38,4.35,4.35,0,0,1,.94-.1,2.92,2.92,0,0,1,2.07.79,4.56,4.56,0,0,1,1.22,2h0a6.18,6.18,0,0,1,.29,1.18,8.94,8.94,0,0,1,.09,1.25,14.91,14.91,0,0,1-.29,2.71,28.8,28.8,0,0,1-.86,3.33,35.49,35.49,0,0,1-1.42,3.7q-.86,1.92-2,3.88v0a.69.69,0,0,1-.34.39A1.14,1.14,0,0,1,296.08,28.72Zm0,5.18a1.32,1.32,0,0,1-1-.39,1.28,1.28,0,0,1-.39-.94,1.19,1.19,0,0,1,.39-.89,1.36,1.36,0,0,1,1-.38,1.5,1.5,0,0,1,1,.38,1.14,1.14,0,0,1,.45.89,1.22,1.22,0,0,1-.45.94A1.46,1.46,0,0,1,296.08,33.9Z"/></g></g></svg>