<svg xmlns="http://www.w3.org/2000/svg" viewBox="0 0 213.51 56.23"><defs><style>.cls-1{fill:#4d4d4d;}</style></defs><title>Asset 18</title><g id="Layer_2" data-name="Layer 2"><g id="Layer_1-2" data-name="Layer 1"><path class="cls-1" d="M11.38,53.1c0-2.37,2.24-6,7.36-12.05a34.5,34.5,0,0,1,7.15-6.18,14.89,14.89,0,0,0-11.46-4.65,1.27,1.27,0,1,1,0-2.54c5.71,0,17-19.16,10.07-19.16-5.12,0-9.94,4.31-14.72,12.48C10.66,26,14.3,42.18,6,42.18c-2.83,0-4.57-2.2-4.57-5.88,0-3.89,1.82-9.43,4.65-14.72l-.85-4.86c-1,.42-2.24.85-3.64,1.31a.93.93,0,0,1-.34,0A1.28,1.28,0,0,1,0,16.8c0-1.44,3.3-1.95,4.95-2.71a28.18,28.18,0,0,1-.25-3.64c0-5,2.54-8.25,5.29-8.25,1.95,0,3.55,1.73,3.55,4.31,0,3.89-2.88,7-4.86,8.25.13.89.25,1.52.42,2.45C14.34,9.32,19.25,6,24.49,6c3.93,0,6.34,2.24,6.34,6,0,5-4.36,12.52-10.11,16.16,3.81.72,6.68,2,8.8,4.15,2.62-1.9,5-3.72,5.63-4.95a1.3,1.3,0,0,1,2.41.59c0,1.65-3.3,4.06-6.47,6.34l.3.63a9.93,9.93,0,0,1,1.06,4.57c0,8.84-9.14,16.71-17.13,16.71C12.86,56.23,11.38,55.08,11.38,53.1ZM4,36.3c0,1.9.38,3.34,2,3.34,1.18,0,2-.55,2-4.36a57.27,57.27,0,0,0-1.18-9.56C5.12,29.66,4,33.55,4,36.3ZM8.33,11.77A5.5,5.5,0,0,0,11,6.65c0-1.23-.55-1.95-1-1.95C8.84,4.71,7.83,8,8.33,11.77ZM20.68,42.65C15.48,48.82,14,52.12,14,53.05c0,.3-.08.63,1.35.63,5.5,0,15-9.81,12.18-16.83A33.63,33.63,0,0,0,20.68,42.65Z"/><path class="cls-1" d="M42.47,21.2A2.49,2.49,0,0,1,45,23.87c0,2.37-2.33,4.95-6,6.64,0,.63-.08,1.23-.08,1.9,0,4.27,1.48,10.45,3.6,10.45,2.79,0,7.06-7.66,9.09-15.23a1.22,1.22,0,0,1,1.18-.93A1.32,1.32,0,0,1,54,28c0,.08,0,.21,0,.3C51.52,37.57,46.66,45.4,42.43,45.4,32.32,44.68,31.09,21.2,42.47,21.2Zm-3,6.13c2.11-1.35,2.71-2.58,2.83-3a2.06,2.06,0,0,0,.08-.59C41.28,23.74,40.1,25.56,39.51,27.34Z"/><path class="cls-1" d="M63.28,35.84c-.34.59-.76,1.14-1.14,1.69a12.83,12.83,0,0,1-3.3,3.17,6.48,6.48,0,0,1-3.6,1.06c-7.7,0-8.12-16.75.55-16.88,1.1,0,2.07,0,4.15,2.2a16.74,16.74,0,0,1,2.83,4.23,29.12,29.12,0,0,0,1.78-5.63,1.29,1.29,0,0,1,1.48-1c3.64.55-.47,21.06.34,21.06.34,0,1.9-1.27,4.61-8.92,1.56-4.57,2.75-9.14,2.75-9.18a1.26,1.26,0,0,1,2.45.59S75,33.17,73.26,38a46.2,46.2,0,0,1-2.88,6.77c-1.35,2.5-2.66,3.64-4.06,3.64C62.31,48.36,62.69,44.55,63.28,35.84ZM55.5,39.22c1,.08,2.67-.68,4.61-3.21a19.56,19.56,0,0,0,1.23-1.82,18,18,0,0,0-3.26-5.37,3.75,3.75,0,0,0-2.37-1.44C53.8,27.38,52.92,39,55.5,39.22Z"/><path class="cls-1" d="M88.74,46.67a2.51,2.51,0,0,1-1.9-.93c-.76-.89-1.65-2.79-1.4-9-1.9,3.43-4.06,5.16-6.51,5.16-8.37,0-6.85-15.23-3.89-15.23,4.61,0,.13,12.69,3.89,12.69,1.9,0,3.85-2.33,5.54-6.56a52.77,52.77,0,0,0,2.11-7.15,1.35,1.35,0,0,1,1.44-1c4,0,.17,19.46.76,19.46.21-.08,1.78-.76,4.36-7.91,1.52-4.23,2.58-8.5,2.62-8.54a1.26,1.26,0,0,1,2.45.59c0,.21-1.14,4.48-2.71,8.84a41.5,41.5,0,0,1-2.75,6.22,10.26,10.26,0,0,1-1.65,2.24,3.41,3.41,0,0,1-2.33,1.1Z"/><path class="cls-1" d="M118,5.17a1.27,1.27,0,0,1-1.27,1.27,1.25,1.25,0,0,1-1.27-1.27c0-1.69-2.58-2.28-4.14-2.5-3-.38-4.78.13-10.53.72.93,14.89-1.48,47.42.21,47.42.21-.17.93-.93,2.11-3.72a77.13,77.13,0,0,0,2.66-8c1.61-5.71,2.83-11.29,2.83-11.34a1.23,1.23,0,0,1,1.48-1,1.25,1.25,0,0,1,1,1.48c0,.08-1.35,6.18-3.09,12.18a65.45,65.45,0,0,1-2.92,8.46,16.67,16.67,0,0,1-1.61,3A3.21,3.21,0,0,1,101,53.39c-9.52,0-3.38-45.17-3.93-49A23.41,23.41,0,0,0,89.84,8a7.8,7.8,0,0,0-3.09,4.06,1.3,1.3,0,0,1-1.23,1c-.13,0-.21,0-.34,0a1.25,1.25,0,0,1-.89-1.56c1.27-4.86,7.4-7.82,11-9.14A38.12,38.12,0,0,1,111.63.18a10.16,10.16,0,0,1,4.31,1.4A4.29,4.29,0,0,1,118,5.17Z"/><path class="cls-1" d="M120.85,28.27c-.09.21-1.14,4.48-2.75,8.84a42.07,42.07,0,0,1-2.71,6.22,11.79,11.79,0,0,1-1.65,2.24,3.49,3.49,0,0,1-2.33,1.1h0c-7,0-3.93-22-.72-22,3.55,0,.25,19.46.76,19.46.21-.08,1.73-.76,4.31-7.91,1.52-4.23,2.62-8.5,2.62-8.54a1.3,1.3,0,0,1,1.56-.93A1.26,1.26,0,0,1,120.85,28.27Zm-11.42-7.15a1.62,1.62,0,0,1,1.69-1.56,1.76,1.76,0,0,1,1.78,1.56,1.79,1.79,0,0,1-1.78,1.65A1.66,1.66,0,0,1,109.43,21.12Z"/><path class="cls-1" d="M131.21,53.1c0-2.37,2.24-6,7.36-12.05a34.53,34.53,0,0,1,7.15-6.18,14.89,14.89,0,0,0-11.46-4.65,1.27,1.27,0,1,1,0-2.54c5.71,0,17-19.16,10.07-19.16-5.12,0-9.94,4.31-14.72,12.48.89,5,4.53,21.19-3.72,21.19-2.83,0-4.57-2.2-4.57-5.88,0-3.89,1.82-9.43,4.65-14.72l-.85-4.86c-1,.42-2.24.85-3.64,1.31a.92.92,0,0,1-.34,0,1.28,1.28,0,0,1-1.31-1.27c0-1.44,3.3-1.95,4.95-2.71a28.09,28.09,0,0,1-.25-3.64c0-5,2.54-8.25,5.29-8.25,1.95,0,3.55,1.73,3.55,4.31,0,3.89-2.88,7-4.87,8.25.13.89.25,1.52.42,2.45C134.17,9.32,139.08,6,144.32,6c3.93,0,6.34,2.24,6.34,6,0,5-4.36,12.52-10.11,16.16,3.81.72,6.68,2,8.8,4.15,2.62-1.9,5-3.72,5.63-4.95a1.3,1.3,0,0,1,2.41.59c0,1.65-3.3,4.06-6.47,6.34l.3.63a9.94,9.94,0,0,1,1.06,4.57c0,8.84-9.14,16.71-17.13,16.71C132.69,56.23,131.21,55.08,131.21,53.1ZM123.85,36.3c0,1.9.38,3.34,2,3.34,1.18,0,2-.55,2-4.36a57.37,57.37,0,0,0-1.18-9.56C125,29.66,123.85,33.55,123.85,36.3Zm4.31-24.53a5.5,5.5,0,0,0,2.66-5.12c0-1.23-.55-1.95-1-1.95C128.67,4.71,127.66,8,128.17,11.77Zm12.35,30.88c-5.2,6.18-6.73,9.47-6.73,10.41,0,.3-.08.63,1.35.63,5.5,0,15-9.81,12.18-16.83A33.62,33.62,0,0,0,140.52,42.65Z"/><path class="cls-1" d="M172.62,28.56A13,13,0,0,1,167,32.71l-.8.34v.34A8,8,0,0,1,164.84,38a5.22,5.22,0,0,1-4.4,2.33c-10.11,0-10-15.1-.59-15.1,2.71,0,4.91,2.62,5.88,5.2a.61.61,0,0,0,.25-.08,10.93,10.93,0,0,0,4.53-3.21,1.25,1.25,0,0,1,1.78-.34A1.2,1.2,0,0,1,172.62,28.56Zm-9,5.24a13.59,13.59,0,0,1-3,.38,9.15,9.15,0,0,1-1.1,0,6.68,6.68,0,0,1-2.5-.8,6.52,6.52,0,0,0,1,3.13,2.86,2.86,0,0,0,4.78.13A5.73,5.73,0,0,0,163.65,33.81Zm-6.13-3.43a2.82,2.82,0,0,0,2.29,1.23,9.64,9.64,0,0,0,3.51-.34c-.46-1.31-1.78-3.21-3.47-3.47C158.58,27.8,157.78,29.28,157.52,30.38Z"/><path class="cls-1" d="M188.19,28.56a13,13,0,0,1-5.63,4.15l-.8.34v.34A8,8,0,0,1,180.41,38a5.22,5.22,0,0,1-4.4,2.33c-10.11,0-10-15.1-.59-15.1,2.71,0,4.91,2.62,5.88,5.2a.61.61,0,0,0,.25-.08,10.93,10.93,0,0,0,4.53-3.21,1.25,1.25,0,0,1,1.78-.34A1.2,1.2,0,0,1,188.19,28.56Zm-9,5.24a13.59,13.59,0,0,1-3,.38,9.15,9.15,0,0,1-1.1,0,6.68,6.68,0,0,1-2.5-.8,6.52,6.52,0,0,0,1,3.13,2.86,2.86,0,0,0,4.78.13A5.73,5.73,0,0,0,179.22,33.81Zm-6.13-3.43a2.82,2.82,0,0,0,2.29,1.23,9.64,9.64,0,0,0,3.51-.34c-.46-1.31-1.78-3.21-3.47-3.47C174.15,27.8,173.34,29.28,173.09,30.38Z"/><path class="cls-1" d="M194.28,37.78h-.13A20.83,20.83,0,0,1,193,40.15c-.55.93-1.31,2-2.5,2-6.56,0-6.39-39.63,4.27-39.63a2.61,2.61,0,0,1,2.33,1.27,6.17,6.17,0,0,1,.51,3.76,26.05,26.05,0,0,1-1.14,5.2,102.8,102.8,0,0,1-5.71,13.92c0,2.83,0,5.67,0,8.08.08,1.65.17,2.79.25,3.6.38-.76.8-1.69,1.27-2.71a40.07,40.07,0,0,1,3.6-6.94A10.19,10.19,0,0,1,198.51,26,5.91,5.91,0,0,1,202,24.76c2.49,0,3,1.48,3.17,2.16.38,2.07-1.78,4.61-3.09,5.92a22.14,22.14,0,0,1-4,3.17c4.61,1.56,4.06,9.81,4.74,9.81H203c.17,0,1-.13,2.33-2.41a38.72,38.72,0,0,0,2.88-6.34A97.62,97.62,0,0,0,211,27.59a1.28,1.28,0,1,1,2.5.59c-.09.17-1.23,4.91-3,9.73a36.55,36.55,0,0,1-3.09,6.81c-1.44,2.45-2.92,3.64-4.48,3.64C195.89,48.36,200.16,37.78,194.28,37.78ZM194,5.85c-1.27,2.07-2.33,7.15-2.83,14,1.23-2.88,2.2-5.5,2.92-7.78,1.61-5.29,1-6.64.89-6.89,0,0,0,0-.17,0S194.32,5.3,194,5.85Zm1.65,28.64c2.54-.55,6.72-5.2,5.84-6.13C199.61,26.41,197.28,31,195.64,34.48Z"/></g></g></svg>