<?xml version="1.0" encoding="utf-8"?>
<!-- Generator: Adobe Illustrator 21.1.0, SVG Export Plug-In . SVG Version: 6.00 Build 0)  -->
<svg version="1.1" id="Layer_1" xmlns="http://www.w3.org/2000/svg" xmlns:xlink="http://www.w3.org/1999/xlink" x="0px" y="0px"
	 viewBox="0 0 213.5 56.2" style="enable-background:new 0 0 213.5 56.2;" xml:space="preserve">
<style type="text/css">
	.st0{fill:#EDEDED;}
</style>
<title>Asset 13</title>
<g id="Layer_2">
	<g id="Layer_1-2">
		<path class="st0" d="M11.4,53.1c0-2.4,2.2-6,7.4-12c2.1-2.4,4.5-4.5,7.1-6.2c-3-3.1-7.1-4.8-11.5-4.6c-0.7,0-1.3-0.6-1.3-1.3
			c0-0.7,0.6-1.3,1.3-1.3c0,0,0,0,0,0c5.7,0,17-19.2,10.1-19.2c-5.1,0-9.9,4.3-14.7,12.5c0.9,5,4.5,21.2-3.8,21.2
			c-2.8,0-4.6-2.2-4.6-5.9c0-3.9,1.8-9.4,4.7-14.7l-0.8-4.9c-1,0.4-2.2,0.9-3.6,1.3c-0.1,0-0.2,0-0.3,0C0.6,18,0,17.5,0,16.8
			c0-1.4,3.3-1.9,4.9-2.7c-0.2-1.2-0.2-2.4-0.2-3.6c0-5,2.5-8.2,5.3-8.2c1.9,0,3.6,1.7,3.6,4.3c0,3.9-2.9,7-4.9,8.2
			c0.1,0.9,0.2,1.5,0.4,2.5C14.3,9.3,19.2,6,24.5,6c3.9,0,6.3,2.2,6.3,6c0,5-4.4,12.5-10.1,16.2c3.8,0.7,6.7,2,8.8,4.2
			c2.6-1.9,5-3.7,5.6-5c0.4-0.6,1.2-0.8,1.8-0.4c0.4,0.2,0.6,0.6,0.6,1c0,1.6-3.3,4.1-6.5,6.3l0.3,0.6c0.7,1.4,1.1,3,1.1,4.6
			c0,8.8-9.1,16.7-17.1,16.7C12.9,56.2,11.4,55.1,11.4,53.1z M4,36.3c0,1.9,0.4,3.3,2,3.3c1.2,0,2-0.5,2-4.4
			c-0.1-3.2-0.5-6.4-1.2-9.6C5.1,29.7,4,33.5,4,36.3z M8.3,11.8c1.8-1.1,2.8-3,2.7-5.1c0-1.2-0.6-2-1-2C8.8,4.7,7.8,8,8.3,11.8z
			 M20.7,42.7C15.5,48.8,14,52.1,14,53c0,0.3-0.1,0.6,1.4,0.6c5.5,0,15-9.8,12.2-16.8C25,38.5,22.7,40.4,20.7,42.7z"/>
		<path class="st0" d="M42.5,21.2c1.4,0,2.5,1.1,2.5,2.4c0,0.1,0,0.2,0,0.2c0,2.4-2.3,4.9-6,6.6c0,0.6-0.1,1.2-0.1,1.9
			c0,4.3,1.5,10.5,3.6,10.5c2.8,0,7.1-7.7,9.1-15.2c0.1-0.5,0.6-0.9,1.2-0.9c0.7,0.1,1.2,0.6,1.2,1.3c0,0.1,0,0.2,0,0.3
			c-2.5,9.3-7.3,17.1-11.6,17.1C32.3,44.7,31.1,21.2,42.5,21.2z M39.5,27.3c2.1-1.4,2.7-2.6,2.8-3c0.1-0.2,0.1-0.4,0.1-0.6
			C41.3,23.7,40.1,25.6,39.5,27.3L39.5,27.3z"/>
		<path class="st0" d="M63.3,35.8c-0.3,0.6-0.8,1.1-1.1,1.7c-0.9,1.2-2,2.3-3.3,3.2c-1.1,0.7-2.3,1.1-3.6,1.1
			c-7.7,0-8.1-16.8,0.5-16.9c1.1,0,2.1,0,4.2,2.2c1.2,1.3,2.1,2.7,2.8,4.2c0.8-1.8,1.4-3.7,1.8-5.6c0.1-0.7,0.8-1.1,1.5-1
			c3.6,0.5-0.5,21.1,0.3,21.1c0.3,0,1.9-1.3,4.6-8.9c1.6-4.6,2.8-9.1,2.8-9.2c0.2-0.7,0.8-1.1,1.5-0.9c0.7,0.2,1.1,0.8,0.9,1.5l0,0
			c0,0-1.2,4.9-2.9,9.8c-0.8,2.3-1.7,4.6-2.9,6.8c-1.3,2.5-2.7,3.6-4.1,3.6C62.3,48.4,62.7,44.5,63.3,35.8z M55.5,39.2
			c1,0.1,2.7-0.7,4.6-3.2c0.4-0.6,0.9-1.2,1.2-1.8c-0.8-2-1.9-3.8-3.3-5.4c-0.6-0.8-1.4-1.3-2.4-1.4C53.8,27.4,52.9,39,55.5,39.2z"
			/>
		<path class="st0" d="M88.7,46.7c-0.7,0-1.4-0.4-1.9-0.9c-0.8-0.9-1.7-2.8-1.4-9c-1.9,3.4-4.1,5.2-6.5,5.2
			c-8.4,0-6.8-15.2-3.9-15.2c4.6,0,0.1,12.7,3.9,12.7c1.9,0,3.8-2.3,5.5-6.6c0.9-2.3,1.6-4.7,2.1-7.1c0.2-0.6,0.8-1.1,1.4-1
			c4,0,0.2,19.5,0.8,19.5c0.2-0.1,1.8-0.8,4.4-7.9c1.5-4.2,2.6-8.5,2.6-8.5c0.2-0.7,0.8-1.1,1.5-0.9c0.7,0.2,1.1,0.8,0.9,1.5
			c0,0.2-1.1,4.5-2.7,8.8c-0.7,2.1-1.7,4.2-2.8,6.2c-0.4,0.8-1,1.6-1.7,2.2C90.5,46.2,89.7,46.6,88.7,46.7L88.7,46.7z"/>
		<path class="st0" d="M118,5.2c0,0.7-0.6,1.3-1.3,1.3c-0.7,0-1.3-0.5-1.3-1.2c0,0,0,0,0,0c0-1.7-2.6-2.3-4.1-2.5
			c-3-0.4-4.8,0.1-10.5,0.7c0.9,14.9-1.5,47.4,0.2,47.4c0.2-0.2,0.9-0.9,2.1-3.7c1-2.6,1.9-5.3,2.7-8c1.6-5.7,2.8-11.3,2.8-11.3
			c0.1-0.7,0.7-1.1,1.4-1c0,0,0,0,0.1,0c0.7,0.1,1.1,0.8,1,1.5c0,0,0,0,0,0c0,0.1-1.3,6.2-3.1,12.2c-0.8,2.9-1.8,5.7-2.9,8.5
			c-0.4,1.1-1,2.1-1.6,3c-0.5,0.9-1.4,1.4-2.5,1.5c-9.5,0-3.4-45.2-3.9-49c-2.6,0.8-5,2-7.2,3.6c-1.5,1-2.5,2.4-3.1,4.1
			c-0.1,0.6-0.6,1-1.2,1c-0.1,0-0.2,0-0.3,0c-0.7-0.2-1.1-0.9-0.9-1.5c0,0,0,0,0,0c1.3-4.9,7.4-7.8,11-9.1
			c5.2-1.9,10.8-2.7,16.3-2.2c1.5,0.1,3,0.6,4.3,1.4C117.2,2.3,118,3.7,118,5.2z"/>
		<path class="st0" d="M120.8,28.3c-0.1,0.2-1.1,4.5-2.8,8.8c-0.7,2.1-1.6,4.2-2.7,6.2c-0.5,0.8-1,1.6-1.7,2.2
			c-0.6,0.7-1.4,1-2.3,1.1l0,0c-7,0-3.9-22-0.7-22c3.6,0,0.2,19.5,0.8,19.5c0.2-0.1,1.7-0.8,4.3-7.9c1.5-4.2,2.6-8.5,2.6-8.5
			c0.2-0.7,0.9-1.1,1.6-0.9C120.6,26.9,121,27.6,120.8,28.3z M109.4,21.1c0-0.9,0.8-1.6,1.7-1.6c0,0,0,0,0,0c0.9,0,1.7,0.7,1.8,1.6
			c-0.1,0.9-0.8,1.6-1.8,1.6C110.2,22.8,109.4,22.1,109.4,21.1C109.4,21.1,109.4,21.1,109.4,21.1z"/>
		<path class="st0" d="M131.2,53.1c0-2.4,2.2-6,7.4-12c2.1-2.4,4.5-4.5,7.1-6.2c-3-3.1-7.1-4.8-11.5-4.6c-0.7,0-1.3-0.6-1.3-1.3
			s0.6-1.3,1.3-1.3c0,0,0,0,0,0c5.7,0,17-19.2,10.1-19.2c-5.1,0-9.9,4.3-14.7,12.5c0.9,5,4.5,21.2-3.7,21.2c-2.8,0-4.6-2.2-4.6-5.9
			c0-3.9,1.8-9.4,4.7-14.7l-0.8-4.9c-1,0.4-2.2,0.9-3.6,1.3c-0.1,0-0.2,0-0.3,0c-0.7,0-1.3-0.5-1.3-1.2c0,0,0,0,0,0
			c0-1.4,3.3-1.9,4.9-2.7c-0.2-1.2-0.2-2.4-0.2-3.6c0-5,2.5-8.2,5.3-8.2c1.9,0,3.6,1.7,3.6,4.3c0,3.9-2.9,7-4.9,8.2
			c0.1,0.9,0.2,1.5,0.4,2.5C134.2,9.3,139.1,6,144.3,6c3.9,0,6.3,2.2,6.3,6c0,5-4.4,12.5-10.1,16.2c3.8,0.7,6.7,2,8.8,4.2
			c2.6-1.9,5-3.7,5.6-5c0.4-0.6,1.2-0.8,1.8-0.4c0.4,0.2,0.6,0.6,0.6,1c0,1.6-3.3,4.1-6.5,6.3l0.3,0.6c0.7,1.4,1.1,3,1.1,4.6
			c0,8.8-9.1,16.7-17.1,16.7C132.7,56.2,131.2,55.1,131.2,53.1z M123.8,36.3c0,1.9,0.4,3.3,2,3.3c1.2,0,2-0.5,2-4.4
			c-0.1-3.2-0.5-6.4-1.2-9.6C125,29.7,123.8,33.5,123.8,36.3z M128.2,11.8c1.8-1.1,2.8-3,2.7-5.1c0-1.2-0.6-1.9-1-1.9
			C128.7,4.7,127.7,8,128.2,11.8L128.2,11.8z M140.5,42.6c-5.2,6.2-6.7,9.5-6.7,10.4c0,0.3-0.1,0.6,1.4,0.6c5.5,0,15-9.8,12.2-16.8
			C144.8,38.5,142.5,40.4,140.5,42.6L140.5,42.6z"/>
		<path class="st0" d="M172.6,28.6c-1.5,1.9-3.4,3.3-5.6,4.1l-0.8,0.3v0.3c0,1.6-0.4,3.2-1.4,4.6c-1,1.5-2.6,2.3-4.4,2.3
			c-10.1,0-10-15.1-0.6-15.1c2.7,0,4.9,2.6,5.9,5.2c0.1,0,0.2,0,0.2-0.1c1.8-0.7,3.3-1.8,4.5-3.2c0.4-0.6,1.1-0.7,1.7-0.4
			c0,0,0,0,0.1,0c0.6,0.3,0.7,1.1,0.4,1.6C172.7,28.5,172.6,28.5,172.6,28.6z M163.6,33.8c-1,0.2-2,0.4-3,0.4c-0.4,0-0.7,0-1.1,0
			c-0.9-0.1-1.7-0.4-2.5-0.8c0.1,1.1,0.4,2.2,1,3.1c0.8,1.3,2.6,1.8,3.9,0.9c0.3-0.2,0.6-0.5,0.8-0.8
			C163.3,35.8,163.6,34.8,163.6,33.8L163.6,33.8z M157.5,30.4c0.5,0.8,1.4,1.2,2.3,1.2c1.2,0.1,2.4,0,3.5-0.3
			c-0.5-1.3-1.8-3.2-3.5-3.5C158.6,27.8,157.8,29.3,157.5,30.4L157.5,30.4z"/>
		<path class="st0" d="M188.2,28.6c-1.5,1.9-3.4,3.3-5.6,4.1l-0.8,0.3v0.3c0,1.6-0.4,3.2-1.3,4.6c-1,1.5-2.6,2.3-4.4,2.3
			c-10.1,0-10-15.1-0.6-15.1c2.7,0,4.9,2.6,5.9,5.2c0.1,0,0.2,0,0.2-0.1c1.8-0.7,3.3-1.8,4.5-3.2c0.4-0.6,1.1-0.7,1.7-0.4
			c0,0,0,0,0.1,0c0.6,0.3,0.7,1.1,0.4,1.6C188.2,28.5,188.2,28.5,188.2,28.6z M179.2,33.8c-1,0.2-2,0.4-3,0.4c-0.4,0-0.7,0-1.1,0
			c-0.9-0.1-1.7-0.4-2.5-0.8c0.1,1.1,0.4,2.2,1,3.1c0.8,1.3,2.6,1.8,3.9,0.9c0.3-0.2,0.6-0.5,0.8-0.8
			C178.9,35.8,179.2,34.8,179.2,33.8L179.2,33.8z M173.1,30.4c0.5,0.8,1.4,1.2,2.3,1.2c1.2,0.1,2.4,0,3.5-0.3
			c-0.5-1.3-1.8-3.2-3.5-3.5C174.1,27.8,173.3,29.3,173.1,30.4L173.1,30.4z"/>
		<path class="st0" d="M194.3,37.8h-0.1c-0.3,0.8-0.7,1.6-1.1,2.4c-0.6,0.9-1.3,2-2.5,2c-6.6,0-6.4-39.6,4.3-39.6
			c0.9,0,1.8,0.5,2.3,1.3c0.6,1.2,0.7,2.5,0.5,3.8c-0.2,1.8-0.6,3.5-1.1,5.2c-1.6,4.8-3.5,9.4-5.7,13.9c0,2.8,0,5.7,0,8.1
			c0.1,1.7,0.2,2.8,0.2,3.6c0.4-0.8,0.8-1.7,1.3-2.7c1-2.4,2.2-4.7,3.6-6.9c0.7-1.1,1.6-2,2.6-2.7c1-0.8,2.2-1.2,3.5-1.2
			c2.5,0,3,1.5,3.2,2.2c0.4,2.1-1.8,4.6-3.1,5.9c-1.2,1.2-2.5,2.3-4,3.2c4.6,1.6,4.1,9.8,4.7,9.8h0.2c0.2,0,1-0.1,2.3-2.4
			c1.1-2,2.1-4.1,2.9-6.3c1.1-3.1,2-6.3,2.8-9.5c0.2-0.7,0.9-1.1,1.5-1s1.1,0.9,1,1.5c-0.1,0.2-1.2,4.9-3,9.7
			c-0.8,2.4-1.8,4.7-3.1,6.8c-1.4,2.5-2.9,3.6-4.5,3.6C195.9,48.4,200.2,37.8,194.3,37.8z M194,5.8c-1.3,2.1-2.3,7.2-2.8,14
			c1.2-2.9,2.2-5.5,2.9-7.8c1.6-5.3,1-6.6,0.9-6.9c0,0,0,0-0.2,0S194.3,5.3,194,5.8z M195.6,34.5c2.5-0.5,6.7-5.2,5.8-6.1
			C199.6,26.4,197.3,31,195.6,34.5L195.6,34.5z"/>
	</g>
</g>
</svg>
